# File exported by Houdini 19.0.561 (www.sidefx.com)
# 38 points
# 152 vertices
# 40 primitives
# Bounds: [-0.930411994, -0.138291001, -0.647363007] to [0.982443988, 0.71904099, 0.55421102]
g 
v 0.724126995 -0.0646390021 -0.418976992
v 0.582548976 0.533137977 -0.157685995
v 0.170017004 0.28649199 -0.624242008
v 0.344388992 -0.0566079989 -0.647363007
v -0.313551009 -0.0758450031 -0.551065028
v -0.287115008 0.183539003 -0.548547983
v -0.677188993 -0.0581680015 -0.476285994
v -0.74574101 0.119369 -0.425940007
v -0.908363998 -0.0451110005 -0.217917994
v -0.87886101 0.0715399981 -0.234474003
v -0.883578002 -0.0694079995 0.183459997
v -0.930411994 0.165056005 -0.0155530004
v -0.621776998 -0.0744080022 0.450991005
v -0.550624013 0.140496001 0.46064499
v -0.387522012 0.275956005 0.482850999
v 0.216001004 -0.103703998 0.55421102
v 0.562116027 0.102605999 0.477961004
v 0.739317 -0.0883790031 0.455680013
v 0.879166007 0.131158993 0.0721580014
v 0.982443988 -0.085845001 0.0581139997
v 0.856768012 0.244920999 -0.143557996
v 0.942332983 0.0267590005 -0.209833995
v 0.673767984 -0.127201006 -0.348446995
v -0.209957004 0.586551011 -0.389064997
v 0.118929997 0.71904099 -0.0115069998
v -0.607357979 0.472160012 -0.315326005
v -0.647831023 0.543677986 0.0393210016
v -0.0895730034 0.717679977 -0.0378770009
v 0.191318005 0.50335902 0.286435008
v -0.623640001 -0.135647997 -0.410012007
v -0.787936985 -0.135446995 -0.185763001
v -0.811335027 -0.135937005 0.147248
v -0.584505975 -0.131096005 0.379451007
v 0.238379002 -0.137489006 0.491279989
v 0.728712022 -0.136680007 0.399713993
v 0.927899003 -0.131077006 0.0651779994
v 0.246917993 -0.138291001 -0.501024008
v -0.320490986 -0.129774004 -0.470452011
vt 0.356595457 0.00803280901 0
vt 0.495151669 0.0775395706 0
vt 0.468943626 0.196267158 0
vt 0.255762905 0.217490286 0
vt 0.655056357 0.246986091 0
vt 0.58067894 0.29436025 0
vt 0.719781995 0.355942726 0
vt 0.679257572 0.408538878 0
vt 0.765911102 0.473979533 0
vt 0.722484767 0.478672802 0
vt 0.810951233 0.61482054 0
vt 0.708285213 0.564172804 0
vt 0.511931837 0.648966908 0
vt 0.428999364 0.721322417 0
vt 0.3005521 0.689125597 0
vt 0.316300422 0.622247279 0
vt 0.0986350253 0.508393049 0
vt 0.300046355 0.565501571 0
vt 0.00973522291 0.375893116 0
vt 0.0865171403 0.386033624 0
vt 0 0.205792144 0
vt 0.0817513242 0.227210164 0
vt 0.0684102029 0.122744665 0
vt 0.142854422 0.172057942 0
vt 0.246707842 0 0
vt 0.224395305 0.0820434242 0
vt 0.919575334 0.692792356 0
vt 0.999514341 0.750367939 0
vt 0.999936759 0.841902256 0
vt 0.899915636 0.719291985 0
vt 0.468215257 0.351699889 0
vt 0.333200485 0.348573953 0
vt 0.549256086 0.453473687 0
vt 0.45162341 0.514992714 0
vt 0.248755008 0.395100474 0
vt 0.371926516 0.383314341 0
vt 0.481624931 0.67873013 0
vt 0.503415763 0.706655383 0
vt 0.454542249 0.77531153 0
vt 0.408203125 0.762960911 0
vt 0.44895196 0.876548827 0
vt 0.419914186 0.890630245 0
vt 0.518416286 0.946465671 0
vt 0.505322754 0.973837495 0
vt 0.770707488 0.977824211 0
vt 0.764097929 0.999942064 0
vt 0.919551492 0.946708739 0
vt 0.927027225 0.968183279 0
vt 0.978393376 0.844436109 0
vt 0.769124866 0.674608946 0
vt 0.799150169 0.623046875 0
vt 0.595377207 0.685714483 0
vt 0.596421182 0.655611098 0
vn 0.48952952 0.44398421 -0.750492394
vn 0.27932322 0.205170915 -0.938021004
vn 0.161122814 0.39602679 -0.903992414
vn 0.378449291 0.627703965 -0.680267453
vn 0.161122814 0.39602679 -0.903992414
vn 0.27932322 0.205170915 -0.938021004
vn -0.155364066 -0.458223015 -0.875153542
vn -0.258811206 0.405930102 -0.876491547
vn -0.155364066 -0.458223015 -0.875153542
vn -0.370068461 -0.14413853 -0.917754531
vn -0.634195924 0.216628268 -0.742204666
vn -0.258811206 0.405930102 -0.876491547
vn -0.634195924 0.216628268 -0.742204666
vn -0.370068461 -0.14413853 -0.917754531
vn -0.942303896 0.200251028 -0.268258899
vn -0.850212812 0.306515694 -0.428002685
vn -0.942303896 0.200251028 -0.268258899
vn -0.8031528 0.284075171 0.523685694
vn -0.978112757 0.197783828 -0.0646300688
vn -0.850212812 0.306515694 -0.428002685
vn -0.978112757 0.197783828 -0.0646300688
vn -0.8031528 0.284075171 0.523685694
vn -0.487953097 0.12273556 0.864197731
vn -0.485657275 0.302048326 0.820307076
vn -0.485657275 0.302048326 0.820307076
vn -0.487953097 0.12273556 0.864197731
vn 0.110006161 0.34973973 0.93036598
vn -0.211756393 0.459630787 0.86249572
vn -0.211756393 0.459630787 0.86249572
vn 0.110006161 0.34973973 0.93036598
vn 0.593011975 0.474302679 0.65067178
vn 0.00667885877 0.00838064309 0.999942541
vn 0.593011975 0.474302679 0.65067178
vn 0.873036802 0.397191346 0.282923341
vn 0.718593955 0.574496865 0.391887933
vn 0.579505026 0.645000398 0.498145103
vn 0.718593955 0.574496865 0.391887933
vn 0.873036802 0.397191346 0.282923341
vn 0.802113473 0.43793276 -0.405991167
vn 0.716499865 0.444376707 -0.537733376
vn 0.802113473 0.43793276 -0.405991167
vn 0.48952952 0.44398421 -0.750492394
vn 0.378449291 0.627703965 -0.680267453
vn 0.716499865 0.444376707 -0.537733376
vn 0.448106259 -0.803203344 -0.392511308
vn 0.64121592 -0.66842705 -0.376891702
vn 0.638020396 -0.763654947 -0.0987976268
vn 0.251639813 -0.925426066 -0.283308983
vn 0.378449291 0.627703965 -0.680267453
vn 0.161122814 0.39602679 -0.903992414
vn -0.122786574 0.765051246 -0.632155061
vn 0.287835419 0.946986496 -0.142714217
vn 0.161122814 0.39602679 -0.903992414
vn -0.258811206 0.405930102 -0.876491547
vn -0.634195924 0.216628268 -0.742204666
vn -0.122786574 0.765051246 -0.632155061
vn -0.122786574 0.765051246 -0.632155061
vn -0.634195924 0.216628268 -0.742204666
vn -0.511083186 0.666007221 -0.543349206
vn -0.634195924 0.216628268 -0.742204666
vn -0.850212812 0.306515694 -0.428002685
vn -0.978112757 0.197783828 -0.0646300688
vn -0.511083186 0.666007221 -0.543349206
vn -0.485657275 0.302048326 0.820307076
vn -0.211756393 0.459630787 0.86249572
vn -0.79076314 0.551765621 0.265044153
vn -0.693277299 0.434041768 0.575303674
vn -0.79076314 0.551765621 0.265044153
vn -0.511083186 0.666007221 -0.543349206
vn -0.978112757 0.197783828 -0.0646300688
vn -0.211756393 0.459630787 0.86249572
vn 0.236136451 0.727296472 0.644421816
vn -0.208109528 0.900223374 0.382476628
vn -0.267336518 0.943842411 0.194146082
vn 0.236136451 0.727296472 0.644421816
vn -0.211756393 0.459630787 0.86249572
vn 0.00667885877 0.00838064309 0.999942541
vn 0.579505026 0.645000398 0.498145103
vn 0.718593955 0.574496865 0.391887933
vn 0.553874671 0.714235067 0.427891582
vn 0.236136451 0.727296472 0.644421816
vn 0.287835419 0.946986496 -0.142714217
vn 0.236136451 0.727296472 0.644421816
vn 0.553874671 0.714235067 0.427891582
vn 0.426588386 0.444481701 0.787691832
vn -0.208109528 0.900223374 0.382476628
vn 0.236136451 0.727296472 0.644421816
vn -0.0807472765 0.797965169 0.597270012
vn 0.287835419 0.946986496 -0.142714217
vn -0.122786574 0.765051246 -0.632155061
vn 0.0396286957 0.931561708 -0.361417234
vn -0.511083186 0.666007221 -0.543349206
vn -0.267336518 0.943842411 0.194146082
vn -0.208109528 0.900223374 0.382476628
vn -0.122786574 0.765051246 -0.632155061
vn -0.524975121 -0.732930601 -0.432682186
vn -0.212338597 -0.904261351 -0.370437056
vn -0.335508376 -0.933092415 -0.129509255
vn -0.55382967 -0.808762908 -0.197927207
vn -0.55382967 -0.808762908 -0.197927207
vn -0.335508376 -0.933092415 -0.129509255
vn -0.387581229 -0.911939502 0.134710878
vn -0.593389869 -0.770711899 0.232145384
vn -0.387581229 -0.911939502 0.134710878
vn -0.156804278 -0.934104264 0.320720524
vn -0.276087701 -0.818118811 0.504437447
vn -0.593389869 -0.770711899 0.232145384
vn -0.276087701 -0.818118811 0.504437447
vn -0.156804278 -0.934104264 0.320720524
vn 0.0145927137 -0.962286294 0.271646947
vn -0.00683358544 -0.882050455 0.471105486
vn 0.0145927137 -0.962286294 0.271646947
vn 0.309174687 -0.888852119 0.338161111
vn 0.361321092 -0.7386747 0.569040239
vn -0.00683358544 -0.882050455 0.471105486
vn 0.361321092 -0.7386747 0.569040239
vn 0.309174687 -0.888852119 0.338161111
vn 0.437144488 -0.899349689 0.00865838211
vn 0.638020396 -0.763654947 -0.0987976268
vn 0.251639813 -0.925426066 -0.283308983
vn 0.0238584317 -0.963196218 -0.267738312
vn 0.113405235 -0.897783518 -0.4255867
vn 0.448106259 -0.803203344 -0.392511308
vn 0.113405235 -0.897783518 -0.4255867
vn 0.0238584317 -0.963196218 -0.267738312
vn -0.0405677445 -0.951011002 -0.306483477
vn -0.155364066 -0.458223015 -0.875153542
vn -0.0405677445 -0.951011002 -0.306483477
vn -0.212338597 -0.904261351 -0.370437056
vn -0.370068461 -0.14413853 -0.917754531
vn -0.155364066 -0.458223015 -0.875153542
vn 0.437144488 -0.899349689 0.00865838211
vn 0.251639813 -0.925426066 -0.283308983
vn 0.638020396 -0.763654947 -0.0987976268
vn 0.309174687 -0.888852119 0.338161111
vn 0.0145927137 -0.962286294 0.271646947
vn 0.0238584317 -0.963196218 -0.267738312
vn 0.251639813 -0.925426066 -0.283308983
vn 0.251639813 -0.925426066 -0.283308983
vn 0.437144488 -0.899349689 0.00865838211
vn 0.309174687 -0.888852119 0.338161111
vn -0.156804278 -0.934104264 0.320720524
vn -0.0405677445 -0.951011002 -0.306483477
vn 0.0238584317 -0.963196218 -0.267738312
vn 0.0145927137 -0.962286294 0.271646947
vn -0.156804278 -0.934104264 0.320720524
vn -0.387581229 -0.911939502 0.134710878
vn -0.212338597 -0.904261351 -0.370437056
vn -0.0405677445 -0.951011002 -0.306483477
vn -0.335508376 -0.933092415 -0.129509255
vn -0.212338597 -0.904261351 -0.370437056
vn -0.387581229 -0.911939502 0.134710878
g 
usemtl /obj/geo1/visualize_uvs1/matnet1/grid_mat
f 1/1/1 4/2/2 3/3/3 2/4/4
f 3/3/5 4/2/6 5/5/7 6/6/8
f 5/5/9 7/7/10 8/8/11 6/6/12
f 8/8/13 7/7/14 9/9/15 10/10/16
f 9/9/17 11/11/18 12/12/19 10/10/20
f 12/13/21 11/14/22 13/15/23 14/16/24
f 14/16/25 13/15/26 16/17/27 15/18/28
f 15/18/29 16/17/30 18/19/31 17/20/32
f 18/19/33 20/21/34 19/22/35 17/20/36
f 19/22/37 20/21/38 22/23/39 21/24/40
f 22/25/41 1/1/42 2/4/43 21/26/44
f 1/27/45 22/28/46 20/29/47 23/30/48
f 2/4/49 3/3/50 24/31/51 25/32/52
f 3/3/53 6/6/54 8/8/55 24/31/56
f 24/31/57 8/8/58 26/33/59
f 8/8/60 10/10/61 12/12/62 26/33/63
f 14/16/64 15/18/65 27/34/66 12/13/67
f 27/34/68 26/33/69 12/13/70
f 15/18/71 29/35/72 28/36/73 27/34/74
f 29/35/75 15/18/76 17/20/77
f 17/20/78 19/22/79 21/24/80 29/35/81
f 25/32/82 29/35/83 21/24/84 2/4/85
f 28/36/86 29/35/87 25/32/88
f 25/32/89 24/31/90 28/36/91
f 26/33/92 27/34/93 28/36/94 24/31/95
f 7/37/96 30/38/97 31/39/98 9/40/99
f 9/40/100 31/39/101 32/41/102 11/42/103
f 32/41/104 33/43/105 13/44/106 11/42/107
f 13/44/108 33/43/109 34/45/110 16/46/111
f 34/45/112 35/47/113 18/48/114 16/46/115
f 18/48/116 35/47/117 36/49/118 20/29/119
f 23/30/120 37/50/121 4/51/122 1/27/123
f 4/51/124 37/50/125 38/52/126 5/53/127
f 38/52/128 30/38/129 7/37/130 5/53/131
f 36/49/132 23/30/133 20/29/134
f 35/47/135 34/45/136 37/50/137 23/30/138
f 23/30/139 36/49/140 35/47/141
f 33/43/142 38/52/143 37/50/144 34/45/145
f 33/43/146 32/41/147 30/38/148 38/52/149
f 31/39/150 30/38/151 32/41/152
