# File exported by Houdini 19.0.561 (www.sidefx.com)
# 56 points
# 228 vertices
# 60 primitives
# Bounds: [-1.48397398, -0.779640973, -0.715058982] to [1.37109494, 0.614699006, 1.17698002]
g 
v -1.25478601 -0.763576984 0.462599993
v -0.723899007 -0.770483017 0.852814972
v -0.955268979 -0.608353972 0.858596981
v -1.36877406 -0.663439989 0.548986018
v -0.399957001 -0.70373702 0.969223022
v -0.372934014 -0.777915001 0.873899996
v 0.192205995 -0.777092993 0.936721981
v 0.160005003 -0.687945008 1.04900301
v 0.780791998 -0.779640973 0.991585016
v 0.635486007 -0.613391995 1.15597904
v 1.06609499 -0.768725991 0.773600996
v 1.14273798 -0.650484025 0.931155026
v 1.10944605 -0.773571014 0.604987025
v 1.20883 -0.683513999 0.540718019
v 0.870688021 -0.778198004 -0.254159987
v 0.996716976 -0.628768981 -0.450964987
v 0.547106028 -0.764780998 -0.513216019
v 0.706128001 -0.66820401 -0.600992024
v -0.474664003 -0.749135971 -0.573276997
v -0.520126998 -0.645862997 -0.676208973
v -1.14728796 -0.753036022 -0.158277005
v -1.17365599 -0.689523995 -0.221878007
v -1.29679406 -0.771054983 0.0289280005
v -1.41928601 -0.680701017 -0.0171109997
v 0.852959991 -0.122666001 -0.683176994
v 0.217712 -0.0575990006 -0.715058982
v -0.583231986 -0.374244988 -0.657393992
v -1.13586605 -0.269284993 -0.309760004
v -1.46341801 -0.588235021 -0.0260620005
v -1.48397398 -0.49121201 0.404976994
v -1.37056506 -0.277855992 0.383630991
v -1.05975604 -0.228466004 0.631456971
v -0.802141011 -0.448801994 0.946043015
v -0.421301007 -0.382690012 1.02929199
v -0.0165350009 -0.276912987 1.08894205
v 0.612613976 -0.536330998 1.17698002
v 1.07783103 -0.103568003 1.09991503
v 1.22102904 -0.283315003 0.986859977
v 1.37109494 -0.110477 0.677106977
v 1.16447604 -0.183320001 -0.0515469983
v 0.93225199 -0.122368 -0.641445994
v 1.06023002 0.449133992 -0.279843003
v 1.26354301 0.259353012 0.220111996
v 1.28876495 0.338301986 0.582858026
v 1.02291501 0.268896013 0.969829023
v 0.842436016 0.513411999 -0.313538015
v 0.326344013 0.179704994 -0.563992977
v -1.01905704 -0.0111560002 -0.0696090013
v -0.800572991 -0.00729600014 0.469992012
v -0.628289998 0.111308001 -0.0553819984
v 0.194538996 0.413688004 -0.123490997
v 0.688861012 0.281830013 0.916450024
v 0.603433013 0.488070995 0.560154974
v 0.782329977 0.612132013 0.210352004
v 1.15867198 0.527333021 0.214614004
v 0.622780025 0.614699006 -0.0403340012
vt 0.959049046 0.774322689 0
vt 0.863715768 0.718543708 0
vt 0.907863081 0.700315595 0
vt 0.98180753 0.754796147 0
vt 0.804777622 0.718921721 0
vt 0.808515012 0.697266281 0
vt 0.707795262 0.7176103 0
vt 0.711028636 0.692065775 0
vt 0.609399259 0.721033514 0
vt 0.623498142 0.677734375 0
vt 0.564186096 0.759875894 0
vt 0.54279685 0.730807662 0
vt 0.559779048 0.789067507 0
vt 0.538085938 0.802441657 0
vt 0.614247918 0.929099023 0
vt 0.589052737 0.969316602 0
vt 0.672020435 0.966852546 0
vt 0.646241903 0.990720034 0
vt 0.844729364 0.960699797 0
vt 0.85585463 0.984018564 0
vt 0.951685369 0.880711675 0
vt 0.960191905 0.894531667 0
vt 0.973349392 0.846424401 0
vt 0.999844313 0.85245347 0
vt 0.600040734 0.410160542 0
vt 0.482459545 0.310986638 0
vt 0.460912466 0.216099277 0
vt 0.54896456 0.200231552 0
vt 0.601399004 0.566156149 0
vt 0.524428904 0.54070127 0
vt 0.551238 0.428431064 0
vt 0.584405959 0.633948445 0
vt 0.566200137 0.628724456 0
vt 0.537868321 0.735919476 0
vt 0.512836993 0.693296432 0
vt 0.319968522 0.711193383 0
vt 0.322803408 0.603928328 0
vt 0.386108816 0.652272582 0
vt 0.372377723 0.701653361 0
vt 0.239923313 0.638079762 0
vt 0.240403071 0.592906892 0
vt 0.153325751 0.565449357 0
vt 0.20442079 0.529743731 0
vt 0.0933837593 0.470203131 0
vt 0.176343977 0.458492368 0
vt 0.0664616376 0.37496075 0
vt 0.0829609856 0.374611795 0
vt 0.0980752409 0.247186333 0
vt 0.129564121 0.273838371 0
vt 0.0281615686 0.266084641 0
vt 0 0.184748769 0
vt 0.131131694 0.177283198 0
vt 0.349184573 0 0
vt 0.50394088 0.136493608 0
vt 0.386092216 0.142222106 0
vt 0.253677934 0.0862406567 0
vt 0.453355819 0.206738725 0
vt 0.370526016 0.228141963 0
vt 0.303179145 0.185106978 0
vt 0.239446983 0.189963445 0
vt 0.18960242 0.262170702 0
vt 0.440162599 0.302501827 0
vt 0.375277132 0.254168779 0
vt 0.473603576 0.666743755 0
vt 0.45484367 0.541543126 0
vt 0.342245132 0.536847651 0
vt 0.421598524 0.478289217 0
vt 0.380829811 0.340701908 0
vt 0.210624769 0.311342746 0
vt 0.271291733 0.305048138 0
vt 0.298936248 0.222930819 0
vt 0.312287718 0.272120267 0
vt 0.348641545 0.285346091 0
vn -0.341318756 -0.922423124 0.180657744
vn -0.169473931 -0.275596589 0.946216226
vn -0.488574237 -0.251708448 0.835426927
vn -0.590414703 -0.754971087 0.285357893
vn -0.169473931 -0.275596589 0.946216226
vn -0.0350319594 -0.952306449 0.303125411
vn -0.181151778 -0.545020759 0.818618655
vn -0.488574237 -0.251708448 0.835426927
vn -0.181151778 -0.545020759 0.818618655
vn -0.0350319594 -0.952306449 0.303125411
vn -0.0337521955 -0.946875274 0.319824934
vn -0.108947098 -0.527012765 0.842845321
vn -0.0337521955 -0.946875274 0.319824934
vn 0.424721748 -0.421210259 0.801369727
vn 0.108214915 -0.437629431 0.892619669
vn -0.108947098 -0.527012765 0.842845321
vn 0.108214915 -0.437629431 0.892619669
vn 0.424721748 -0.421210259 0.801369727
vn 0.388096541 -0.898775578 0.203920051
vn 0.401969939 -0.610740423 0.682214141
vn 0.388096541 -0.898775578 0.203920051
vn 0.407307744 -0.911953866 0.0494026728
vn 0.849636495 -0.525089204 -0.0489819013
vn 0.401969939 -0.610740423 0.682214141
vn 0.849636495 -0.525089204 -0.0489819013
vn 0.407307744 -0.911953866 0.0494026728
vn 0.303986192 -0.93606019 -0.177154511
vn 0.619776726 -0.583985627 -0.524249673
vn 0.303986192 -0.93606019 -0.177154511
vn 0.0675575063 -0.916978478 -0.393174857
vn 0.262933373 -0.559767067 -0.78582865
vn 0.619776726 -0.583985627 -0.524249673
vn 0.262933373 -0.559767067 -0.78582865
vn 0.0675575063 -0.916978478 -0.393174857
vn -0.0987064615 -0.900775909 -0.422918111
vn -0.250583857 -0.385867208 -0.887870669
vn -0.0987064615 -0.900775909 -0.422918111
vn -0.258159339 -0.909403682 -0.326096296
vn -0.536270022 -0.448455304 -0.715054035
vn -0.250583857 -0.385867208 -0.887870669
vn -0.536270022 -0.448455304 -0.715054035
vn -0.258159339 -0.909403682 -0.326096296
vn -0.295406014 -0.949326634 -0.107303515
vn -0.729878902 -0.612702429 -0.303104848
vn -0.295406014 -0.949326634 -0.107303515
vn -0.341318756 -0.922423124 0.180657744
vn -0.590414703 -0.754971087 0.285357893
vn -0.729878902 -0.612702429 -0.303104848
vn -0.341318756 -0.922423124 0.180657744
vn -0.295406014 -0.949326634 -0.107303515
vn -0.258159339 -0.909403682 -0.326096296
vn -0.0164070837 -0.99981153 -0.0103819696
vn -0.258159339 -0.909403682 -0.326096296
vn -0.0987064615 -0.900775909 -0.422918111
vn -0.0350319594 -0.952306449 0.303125411
vn -0.0164070837 -0.99981153 -0.0103819696
vn -0.0350319594 -0.952306449 0.303125411
vn -0.0987064615 -0.900775909 -0.422918111
vn 0.0675575063 -0.916978478 -0.393174857
vn -0.0337521955 -0.946875274 0.319824934
vn 0.0675575063 -0.916978478 -0.393174857
vn 0.303986192 -0.93606019 -0.177154511
vn 0.0112538971 -0.999936581 -0.000346135726
vn -0.0337521955 -0.946875274 0.319824934
vn 0.0112538971 -0.999936581 -0.000346135726
vn 0.303986192 -0.93606019 -0.177154511
vn 0.407307744 -0.911953866 0.0494026728
vn 0.388096541 -0.898775578 0.203920051
vn -0.250583857 -0.385867208 -0.887870669
vn -0.10152857 0.317430556 -0.942830741
vn 0.270252109 -0.214148864 -0.93867147
vn 0.262933373 -0.559767067 -0.78582865
vn -0.250583857 -0.385867208 -0.887870669
vn -0.536270022 -0.448455304 -0.715054035
vn -0.617734671 0.395178139 -0.679880917
vn -0.350210935 0.274615437 -0.895510197
vn -0.536270022 -0.448455304 -0.715054035
vn -0.729878902 -0.612702429 -0.303104848
vn -0.445517838 -0.294478714 -0.845456243
vn -0.617734671 0.395178139 -0.679880917
vn -0.903197527 -0.425964326 0.0528078526
vn -0.729878902 -0.612702429 -0.303104848
vn -0.590414703 -0.754971087 0.285357893
vn -0.996320128 -0.0805129409 -0.0293911286
vn -0.584949493 0.27059716 0.764598727
vn -0.47927168 0.608993888 0.632000923
vn -0.589553595 0.673889697 0.445308059
vn -0.491350085 0.34134379 0.801286161
vn -0.47927168 0.608993888 0.632000923
vn -0.584949493 0.27059716 0.764598727
vn -0.488574237 -0.251708448 0.835426927
vn -0.340016067 -0.179604724 0.923109472
vn -0.488574237 -0.251708448 0.835426927
vn -0.181151778 -0.545020759 0.818618655
vn -0.225513101 0.251290113 0.941274226
vn -0.340016067 -0.179604724 0.923109472
vn -0.225513101 0.251290113 0.941274226
vn -0.181151778 -0.545020759 0.818618655
vn -0.108947098 -0.527012765 0.842845321
vn -0.217125103 0.289265603 0.932299316
vn -0.108947098 -0.527012765 0.842845321
vn 0.108214915 -0.437629431 0.892619669
vn -0.00841290317 -0.102673881 0.994679511
vn -0.217125103 0.289265603 0.932299316
vn -0.00841290317 -0.102673881 0.994679511
vn 0.108214915 -0.437629431 0.892619669
vn 0.750930309 -0.0831630081 0.655124068
vn 0.67586416 0.0774369836 0.732946813
vn 0.108214915 -0.437629431 0.892619669
vn 0.401969939 -0.610740423 0.682214141
vn 0.750930309 -0.0831630081 0.655124068
vn 0.750930309 -0.0831630081 0.655124068
vn 0.955821335 -0.231325015 0.181368083
vn 0.849636495 -0.525089204 -0.0489819013
vn 0.986406505 -0.00341824279 0.164288297
vn 0.849636495 -0.525089204 -0.0489819013
vn 0.619776726 -0.583985627 -0.524249673
vn 0.950473428 -0.0302313752 -0.309331775
vn 0.986406505 -0.00341824279 0.164288297
vn 0.619776726 -0.583985627 -0.524249673
vn 0.262933373 -0.559767067 -0.78582865
vn 0.270252109 -0.214148864 -0.93867147
vn 0.776632786 -0.132766992 -0.615804017
vn 0.776632786 -0.132766992 -0.615804017
vn 0.75086385 0.274932086 -0.600512922
vn 0.950473428 -0.0302313752 -0.309331775
vn 0.929597318 -0.0200946778 -0.368028551
vn 0.950473428 -0.0302313752 -0.309331775
vn 0.75086385 0.274932086 -0.600512922
vn 0.945134819 0.0782769993 -0.317163795
vn 0.986406505 -0.00341824279 0.164288297
vn 0.945134819 0.0782769993 -0.317163795
vn 0.956147492 0.255568326 0.143061921
vn 0.986406505 -0.00341824279 0.164288297
vn 0.986406505 -0.00341824279 0.164288297
vn 0.956147492 0.255568326 0.143061921
vn 0.401723951 0.366812825 0.839086592
vn 0.750930309 -0.0831630081 0.655124068
vn 0.750930309 -0.0831630081 0.655124068
vn 0.401723951 0.366812825 0.839086592
vn 0.67586416 0.0774369836 0.732946813
vn 0.75086385 0.274932086 -0.600512922
vn 0.205416054 0.608555079 -0.766462564
vn -0.155176535 0.66961658 -0.72631526
vn 0.142352611 0.773233414 -0.61793673
vn 0.205416054 0.608555079 -0.766462564
vn 0.110220842 0.970073044 -0.216355056
vn -0.10152857 0.317430556 -0.942830741
vn -0.155176535 0.66961658 -0.72631526
vn -0.10152857 0.317430556 -0.942830741
vn -0.250583857 -0.385867208 -0.887870669
vn -0.350210935 0.274615437 -0.895510197
vn -0.617734671 0.395178139 -0.679880917
vn -0.760969341 0.624233663 -0.176799536
vn -0.996320128 -0.0805129409 -0.0293911286
vn -0.857890606 0.427486479 -0.285094708
vn -0.589553595 0.673889697 0.445308059
vn -0.484790444 0.839324415 -0.245993525
vn -0.617734671 0.395178139 -0.679880917
vn -0.484790444 0.839324415 -0.245993525
vn -0.589553595 0.673889697 0.445308059
vn -0.47927168 0.608993888 0.632000923
vn -0.374281377 0.850911438 0.368596256
vn -0.47927168 0.608993888 0.632000923
vn -0.225513101 0.251290113 0.941274226
vn -0.217125103 0.289265603 0.932299316
vn -0.374281377 0.850911438 0.368596256
vn -0.267581463 0.67243433 0.690095782
vn -0.225513101 0.251290113 0.941274226
vn -0.47927168 0.608993888 0.632000923
vn -0.217125103 0.289265603 0.932299316
vn -0.00841290317 -0.102673881 0.994679511
vn -0.131872669 0.309461176 0.941723645
vn 0.401723951 0.366812825 0.839086592
vn -0.350210935 0.274615437 -0.895510197
vn -0.617734671 0.395178139 -0.679880917
vn -0.484790444 0.839324415 -0.245993525
vn -0.10152857 0.317430556 -0.942830741
vn -0.155176535 0.66961658 -0.72631526
vn -0.10152857 0.317430556 -0.942830741
vn -0.484790444 0.839324415 -0.245993525
vn -0.310383409 0.939693391 -0.143661141
vn -0.155176535 0.66961658 -0.72631526
vn -0.310383409 0.939693391 -0.143661141
vn -0.362794131 0.873142183 -0.325581223
vn 0.142352611 0.773233414 -0.61793673
vn 0.956147492 0.255568326 0.143061921
vn 0.945134819 0.0782769993 -0.317163795
vn 0.75086385 0.274932086 -0.600512922
vn -0.374281377 0.850911438 0.368596256
vn -0.217125103 0.289265603 0.932299316
vn -0.208778322 0.689019918 0.694019496
vn -0.139012188 0.91715771 0.373493463
vn -0.217125103 0.289265603 0.932299316
vn 0.401723951 0.366812825 0.839086592
vn -0.208778322 0.689019918 0.694019496
vn -0.208778322 0.689019918 0.694019496
vn 0.00891106296 0.983172655 0.182460845
vn 0.188781664 0.917083681 0.351168156
vn -0.139012188 0.91715771 0.373493463
vn -0.139012188 0.91715771 0.373493463
vn 0.188781664 0.917083681 0.351168156
vn 0.215494752 0.964156508 0.154804423
vn 0.04860764 0.987642646 0.148993835
vn 0.956147492 0.255568326 0.143061921
vn 0.75086385 0.274932086 -0.600512922
vn 0.9499529 0.218131691 -0.223624915
vn 0.215494752 0.964156508 0.154804423
vn 0.30632636 0.928946376 -0.207900941
vn 0.142352611 0.773233414 -0.61793673
vn 0.04860764 0.987642646 0.148993835
vn 0.142352611 0.773233414 -0.61793673
vn -0.362794131 0.873142183 -0.325581223
vn -0.198109686 0.973823249 -0.111449078
vn -0.198109686 0.973823249 -0.111449078
vn 0.04860764 0.987642646 0.148993835
vn 0.142352611 0.773233414 -0.61793673
vn -0.362794131 0.873142183 -0.325581223
vn -0.139012188 0.91715771 0.373493463
vn 0.04860764 0.987642646 0.148993835
vn -0.198109686 0.973823249 -0.111449078
vn -0.139012188 0.91715771 0.373493463
vn -0.362794131 0.873142183 -0.325581223
vn -0.310383409 0.939693391 -0.143661141
vn -0.374281377 0.850911438 0.368596256
vn -0.484790444 0.839324415 -0.245993525
vn -0.374281377 0.850911438 0.368596256
vn -0.310383409 0.939693391 -0.143661141
g 
f 1/1/1 2/2/2 3/3/3 4/4/4
f 2/2/5 6/5/6 5/6/7 3/3/8
f 5/6/9 6/5/10 7/7/11 8/8/12
f 7/7/13 9/9/14 10/10/15 8/8/16
f 10/10/17 9/9/18 11/11/19 12/12/20
f 11/11/21 13/13/22 14/14/23 12/12/24
f 14/14/25 13/13/26 15/15/27 16/16/28
f 15/15/29 17/17/30 18/18/31 16/16/32
f 18/18/33 17/17/34 19/19/35 20/20/36
f 19/19/37 21/21/38 22/22/39 20/20/40
f 22/22/41 21/21/42 23/23/43 24/24/44
f 23/23/45 1/1/46 4/4/47 24/24/48
f 1/1/49 23/23/50 21/21/51 2/2/52
f 21/21/53 19/19/54 6/5/55 2/2/56
f 6/5/57 19/19/58 17/17/59 7/7/60
f 17/17/61 15/15/62 9/9/63 7/7/64
f 9/9/65 15/15/66 13/13/67 11/11/68
f 20/25/69 26/26/70 25/27/71 18/28/72
f 20/25/73 22/29/74 28/30/75 27/31/76
f 22/29/77 24/32/78 29/33/79 28/30/80
f 29/33/81 24/32/82 4/34/83 30/35/84
f 4/36/85 32/37/86 31/38/87 30/39/88
f 32/37/89 4/36/90 3/40/91 33/41/92
f 3/40/93 5/42/94 34/43/95 33/41/96
f 34/43/97 5/42/98 8/44/99 35/45/100
f 8/44/101 10/46/102 36/47/103 35/45/104
f 36/47/105 10/46/106 38/48/107 37/49/108
f 10/46/109 12/50/110 38/48/111
f 38/48/112 12/50/113 14/51/114 39/52/115
f 14/53/116 16/54/117 40/55/118 39/56/119
f 16/54/120 18/28/121 25/27/122 41/57/123
f 41/57/124 42/58/125 40/55/126 16/54/127
f 40/55/128 42/58/129 43/59/130 39/56/131
f 43/59/132 44/60/133 39/56/134
f 39/52/135 44/60/136 45/61/137 38/48/138
f 38/48/139 45/61/140 37/49/141
f 42/58/142 41/57/143 47/62/144 46/63/145
f 41/57/146 25/27/147 26/26/148 47/62/149
f 26/26/150 20/25/151 27/31/152
f 28/30/153 29/33/154 30/35/155 31/64/156
f 31/64/157 48/65/158 28/30/159
f 48/65/160 31/38/161 32/37/162 49/66/163
f 32/37/164 34/43/165 35/45/166 49/66/167
f 33/41/168 34/43/169 32/37/170
f 35/45/171 36/47/172 37/49/173 45/61/174
f 27/31/175 28/30/176 48/65/177 26/26/178
f 47/62/179 26/26/180 48/65/181 50/67/182
f 47/62/183 50/67/184 51/68/185 46/63/186
f 44/60/187 43/59/188 42/58/189
f 49/66/190 35/45/191 52/69/192 53/70/193
f 35/45/194 45/61/195 52/69/196
f 52/69/197 45/61/198 44/60/199 53/70/200
f 53/70/201 44/60/202 55/71/203 54/72/204
f 44/60/205 42/58/206 55/71/207
f 55/71/208 42/58/209 46/63/210 54/72/211
f 46/63/212 51/68/213 56/73/214
f 56/73/215 54/72/216 46/63/217
f 51/68/218 53/70/219 54/72/220 56/73/221
f 53/70/222 51/68/223 50/67/224 49/66/225
f 48/65/226 49/66/227 50/67/228
