# File exported by Houdini 19.0.561 (www.sidefx.com)
# 62 points
# 210 vertices
# 49 primitives
# Bounds: [-0.0403126329, -0.000316329621, -0.0403126329] to [0.000772362109, 0.0699999928, 0.000772364088]
g 
v -0.0201563165 -5.68784841e-09 -0.0349117629
v -0.0349117666 -3.2838805e-09 -0.0201563127
v -0.0403126329 2.62624762e-16 1.61197933e-09
v -0.0218974538 0.0699999928 -0.0126425102
v -0.025285 0.0699999928 -1.02992042e-08
v -0.0316975117 0.0349999927 -0.0183005724
v -0.0366011336 0.0349999964 -4.27871827e-09
v -0.0186646935 -0.000316329621 -0.0323282517
v -0.0323282555 -0.00031632738 -0.0186646916
v -0.037430007 -0.000305612222 0.000772364088
v -0.0202250089 0.0677043349 -0.0116769653
v -0.0233819261 0.0677376539 0.000509862788
v -0.0291542802 0.0343872122 -0.0168322045
v -0.0337605327 0.0344072655 0.00076109689
v -0.0189038105 0.0236226693 -0.0327423625
v -0.0160102192 -5.86884408e-09 -0.0360227078
v -0.0132085755 -0.000313322904 -0.0337603502
v -0.0189962368 0.0253847688 -0.0323946811
v -0.0206546001 0.0349999927 -0.029343484
v -0.0109977284 0.0699262694 5.91468449e-07
v -0.0218769945 0.0699998736 -0.0126306945
v -0.0218919348 0.0699999928 -0.0126480293
v -0.0172588415 0.0263075158 -0.0298932511
v -0.0186545849 0.0343872122 -0.0273318999
v -0.0096215941 0.0672264546 0.000204163254
v -0.0198371653 0.0676883087 -0.0114530241
v -0.0201236382 0.0677043349 -0.0117783342
v -0.0159379803 0.0217418671 -0.0307208858
v -2.69821443e-10 -6.56776145e-09 -0.0403126329
v 0.000772362109 -0.000305618451 -0.037430007
v -0.0187924318 0.0257232971 -0.0325494483
v -2.26312746e-10 0.0347007997 -0.0366328657
v 0.000762675365 0.0295537803 -0.0342735946
v -0.0189038105 0.0236226711 -0.0327423625
v -0.0189962368 0.0253847782 -0.0323946774
v -0.0160102192 -5.86884408e-09 -0.0360227078
v -0.0132085755 -0.000313322904 -0.0337603502
v -0.0159371383 0.0217408631 -0.0307204276
v 0 0.0699999928 -0.025285013
v -0.0126425 0.0699999928 -0.0218974631
v -2.25937602e-10 0.034999989 -0.0366011411
v -0.0183005668 0.0349999927 -0.0316975154
v -7.33300067e-06 0.069869563 1.05437448e-06
v 0.000509964302 0.0677378327 -0.0233817548
v -0.011676955 0.0677043349 -0.0202250183
v 0.000761100848 0.0344072618 -0.0337605365
v -0.0168322008 0.0343872122 -0.0291542877
v -1.75872192e-05 0.0668696538 -9.19935519e-06
v -0.0187924318 0.0257232971 -0.0325494483
v -2.26312746e-10 0.0347007997 -0.0366328657
v 0.000762675365 0.0295537803 -0.0342735946
v -0.020654602 0.0349999927 -0.0293434802
v -0.0218919385 0.0699999928 -0.0126480265
v -0.0109977312 0.0699262694 5.91468279e-07
v -0.0218770038 0.0699998736 -0.0126306992
v -0.0186545867 0.0343872122 -0.0273318999
v -0.0201236419 0.0677043349 -0.0117783323
v -0.00962159876 0.0672264546 0.000204163356
v -0.0198371746 0.0676883087 -0.0114530297
v -0.0189962406 0.0253847763 -0.0323946774
v -0.0172588415 0.0263075028 -0.0298932511
v -0.0159371421 0.0217408594 -0.0307204239
vt 0.264063478 0.589323699 0
vt 0.264063478 0.451332361 0
vt 0.531122804 0.472664058 0
vt 0.531122804 0.567992032 0
vt 0.47265625 0.465460807 0
vt 0.47265625 0.313476562 0
vt 0.728907228 0.320473015 0
vt 0.728907228 0.434217334 0
vt 0.658509791 0.458472073 0
vt 0.645608664 0.460738659 0
vt 0.0078125 0.596320152 0
vt 0.0078125 0.444335938 0
vt 0.851261854 0.0495953448 0
vt 0.777702689 0.123200051 0
vt 0.768648326 0.0021193584 0
vt 0.768692791 0.001953125 0
vt 0.260933906 0.705482543 0
vt 0.514157832 0.725506544 0
vt 0.514395893 0.817197204 0
vt 0.260983199 0.837939799 0
vt 0.490234375 0.821289062 0
vt 0.685151517 0.826589286 0
vt 0.744304121 0.84696877 0
vt 0.744304121 0.955117822 0
vt 0.490234375 0.962026656 0
vt 0.00687342463 0.698242188 0
vt 0.0068359375 0.844604313 0
vt 0.483436972 0.949863434 0
vt 0.404383063 0.996314704 0
vt 0.403539687 0.993161619 0
vt 0.410999298 0.88046664 0
vt 0.177746788 0.59375 0
vt 0.329730809 0.59375 0
vt 0.324107498 0.614863336 0
vt 0.183370158 0.614863396 0
vt 0.0458984375 0.669348478 0
vt 0.0567667112 0.688303053 0
vt 0.923725426 0.253528327 0
vt 0.65691489 0.231089577 0
vt 0.661027014 0.209623367 0
vt 0.913959026 0.234069899 0
vt 0.411132812 0.15878652 0
vt 0.417292982 0.137836829 0
vt 0.965452492 0.158266753 0
vt 0.951424062 0.141076505 0
vt 0.995966613 0.341804683 0
vt 0.995966613 0.341861516 0
vt 0.037109375 0.211926788 0
vt 0.037109375 0.180664062 0
vt 0.210061774 0.185386181 0
vt 0.480495602 0.67949599 0
vt 0.641982138 0.704217315 0
vt 0.675416052 0.715026498 0
vt 0.480506063 0.720580876 0
vt 0.356851637 0.609300375 0
vt 0.359645963 0.635478377 0
vt 0.768635929 0.00195313967 0
vt 0.997573853 0.93463707 0
vt 0.997573853 0.935681224 0
vt 0.403338939 0.996314466 0
vt 0.893227756 0.0274518691 0
vt 0.893145978 0.0281498376 0
vt 0.881948292 0.0219376944 0
vt 0.88864243 0.0100668771 0
vt 0.915371776 0 0
vt 0.893310368 0.0321411751 0
vt 0.914918125 0.040828798 0
vt 0.914909363 0.0408268794 0
vt 0.903857708 0.0485420935 0
vt 0.875260472 0.00894004852 0
vt 0.869582593 0.00682406966 0
vt 0.863458216 0.0382573642 0
vt 0.87185812 0.026587015 0
vt 0.879699051 0.025074603 0
vt 0.0371093787 0.332648307 0
vt 0.210061789 0.185386166 0
vt 0.225441426 0.185806081 0
vt 0.291169852 0.325711668 0
vt 0.48046875 0.57421875 0
vt 0.699081719 0.579951763 0
vt 0.641975343 0.704212189 0
vt 0.461579174 0.669348478 0
vt 0.450710922 0.688303053 0
vt 0.588413715 0.0845712721 0
vt 0.344739616 0.156277403 0
vt 0.372601956 0.12538977 0
vt 0.582251608 0.0636221394 0
vt 0.65850991 0.458472043 0
vt 0.660988331 0.460318744 0
vt 0.921680987 0.12414103 0
vt 0.922097027 0.123061135 0
vt 0.897669673 0.095691368 0
vt 1 0.118635178 0
vt 0.980118632 0.0857677385 0
vt 0.91587311 6.4372085e-05 0
vt 0.927571237 0.0116827972 0
vt 0.932787001 0.0120007442 0
vt 0.936929405 0.0093544852 0
vt 0.935089231 0.0018278549 0
vt 0.293360353 0.325651854 0
vt 0.293360353 0.187660471 0
vt 0.560419679 0.208992198 0
vt 0.560419738 0.304320157 0
vt 0.728907228 0.458464354 0
vt 0.728907228 0.434217304 0
vt 0.995966613 0.437132686 0
vt 0.768635988 0.00195313967 0
vt 0.768648326 0.00211928948 0
vt 0.721117735 0.179820016 0
vt 0.673364878 0.00197760155 0
vt 0.590820312 0.049662184 0
vt 0.734616041 0.580883622 0
vt 0.988030374 0.601626098 0
vt 0.987790525 0.693317115 0
vt 0.73456651 0.713340878 0
vt 0.744304121 0.828197837 0
vt 0.997573853 0.847634494 0
vt 0.997573853 0.934637129 0
vt 0.403539717 0.993161678 0
vt 0.403338969 0.996314466 0
vt 0.316336334 0.996294022 0
vt 0.360441506 0.83203125 0
vt 0.237304688 0.949804246 0
vt 0.342638642 0.156895652 0
vt 0.33852455 0.135429755 0
vt 0.0758305565 0.179356307 0
vt 0.0855935887 0.159896374 0
vt 0.001953125 0.0107718855 0
vt 0.0219296943 0.001953125 0
vt 0.658509851 0.458472013 0
vt 0.675415933 0.715026498 0
vt 0.641975343 0.704212248 0
vt 0.897242308 0.00508335372 0
vt 0.872944057 0.00738013955 0
vt 0.865991712 1.45239546e-05 0
vt 0.899007857 7.4261181e-05 0
vt 0.89915359 0 0
vt 0.777702689 0.123200037 0
vt 0.410999328 0.8804667 0
vt 0.997550726 0.0849873722 0
vt 0.965452433 0.158266768 0
vt 0.951424062 0.141076535 0
vt 0.977572739 0.076171875 0
vt 0.685151398 0.826589346 0
vt 0.96520102 0.0946957693 0
vt 0.942499399 0.0683795065 0
vt 0.947930396 0 0
vt 0.907692313 0.0707271546 0
vt 0.895672023 0.0812276304 0
vt 0.896034002 0.0889141336 0
vt 0.863458216 0.0567448847 0
vt 0.863827586 0.0566244125 0
vt 0.986118913 0.0804725289 0
vt 0.980259478 0.0598079264 0
vt 0.993683755 0.0532655604 0
vn -0.922008991 0.29810217 -0.247051626
vn -0.922008932 0.2981022 -0.247051597
vn -0.922008991 0.2981022 -0.247051448
vn -0.922009051 0.29810217 -0.247051477
vn -0.703426361 0.101896144 -0.703426361
vn -0.703426301 0.101896241 -0.703426301
vn -0.703426301 0.101896241 -0.703426301
vn -0.703426301 0.101896323 -0.703426301
vn -0.703422368 0.101898178 -0.703430057
vn -0.703431785 0.101895913 -0.703420937
vn -0.960898161 0.101896375 -0.25747183
vn -0.960898221 0.101896346 -0.25747183
vn -0.960898221 0.101896346 -0.257471919
vn -0.960898161 0.101896375 -0.257471889
vn 0.00515995082 0.999985754 0.00138260401
vn 0.00515994988 0.999985695 0.00138281716
vn 0.0047686859 0.999986947 0.00183178333
vn 0.00436956994 0.999987304 0.0025228716
vn 0.926899314 -0.286017716 0.24300544
vn 0.927461386 -0.28586337 0.241034314
vn 0.927163839 -0.286889315 0.240960017
vn 0.926693738 -0.286727875 0.242952421
vn 0.703456104 -0.101483144 0.703456104
vn 0.703456461 -0.101483129 0.703455865
vn 0.703456163 -0.101483271 0.703456163
vn 0.703456223 -0.101483218 0.703456223
vn 0.703456104 -0.101483211 0.703456223
vn 0.962242961 -0.101345867 0.252621084
vn 0.962384999 -0.101330586 0.252085745
vn 0.962353587 -0.101647913 0.252077878
vn 0.962214649 -0.10163305 0.252613813
vn -0.0372773334 -0.999280989 -0.00692439452
vn -0.0317188054 -0.99935931 -0.0165846758
vn -0.0361589007 -0.9993065 -0.00889109448
vn -0.0372773148 -0.99928087 -0.00692386739
vn -0.0913173333 -0.994425237 -0.0527220592
vn -0.0527222306 -0.994425237 -0.0913171321
vn -0.05219955 -0.994424999 -0.0916188657
vn -0.091619052 -0.994424939 -0.0521994121
vn -0.0984025002 -0.994797349 -0.0263666976
vn -0.0913173333 -0.994425237 -0.0527220592
vn -0.091619052 -0.994424939 -0.0521994121
vn -0.0986745134 -0.994796753 -0.0253512394
vn -0.18965137 0.0613178946 0.979934871
vn -0.248187259 0.0526340753 0.967281103
vn -0.247730926 0.0548156872 0.967276931
vn -0.18531698 0.0650959089 0.980520368
vn -0.248187259 0.0526340753 0.967281103
vn -0.256026149 0.0271499045 0.966288447
vn -0.256002218 0.0273754597 0.966288447
vn -0.247730926 0.0548156872 0.967276931
vn 0.000346887624 0.0753644928 0.997155905
vn 0.00109794852 0.220738456 0.975332439
vn 0.0306043532 0.244187221 0.969245017
vn 0.0253928285 0.0880281031 0.995794356
vn -0.674957395 0.298102111 -0.674957395
vn -0.674957454 0.298102111 -0.674957454
vn -0.674957514 0.29810214 -0.674957514
vn -0.674957514 0.298102081 -0.674957395
vn -0.257472217 0.1018961 -0.960898161
vn -0.257472217 0.101896092 -0.960898101
vn -0.257472217 0.101896085 -0.960898042
vn 0.252621293 -0.101345658 0.962243021
vn 0.252620518 -0.101345763 0.962243199
vn 0.252620995 -0.101345628 0.96224314
vn 0.252621233 -0.101345628 0.962242961
vn -0.0527222306 -0.994425237 -0.0913171321
vn -0.0277030766 -0.994255006 -0.103388995
vn -0.0268601514 -0.994170427 -0.104421131
vn -0.05219955 -0.994424999 -0.0916188657
vn 0.00436956994 0.999987304 0.0025228716
vn 0.0047686859 0.999986947 0.00183178333
vn 0.0036935003 0.999986351 0.0036935003
vn 0.677485943 -0.286401123 0.677485943
vn 0.677479088 -0.286403954 0.677491546
vn 0.677479804 -0.286400348 0.677492321
vn 0.677485943 -0.286401033 0.677485943
vn -0.0317188054 -0.99935931 -0.0165846758
vn -0.0261776727 -0.999314427 -0.0261781532
vn -0.0361589007 -0.9993065 -0.00889109448
vn 0.630001187 0.182007775 -0.754964769
vn 0.629998624 0.182008073 -0.754966736
vn 0.629998446 0.182007745 -0.754967034
vn 0.629998565 0.182007775 -0.754966974
vn 0.629998446 0.18200776 -0.754966915
vn 0.718817353 0.319848418 -0.6172508
vn 0.71881783 0.319848359 -0.617250323
vn 0.718774676 0.319866329 -0.617291212
vn 0.71881777 0.319848388 -0.617250502
vn 0.718817413 0.31984961 -0.617250264
vn 0.718817174 0.319849461 -0.617250502
vn 0.718817413 0.319848537 -0.617250681
vn 0.71882081 0.319847077 -0.617247462
vn 0.718816519 0.319848895 -0.617251635
vn 0.71881789 0.319848567 -0.617250025
vn 0.718817413 0.319848567 -0.617250681
vn -0.257471919 0.101896241 -0.960898221
vn -0.257471859 0.10189613 -0.960898161
vn -0.257466614 0.101896964 -0.960899532
vn -0.257472217 0.101897128 -0.960898042
vn -0.257471859 0.101896256 -0.96089828
vn 0.252613991 -0.101632968 0.962214649
vn 0.252297401 -0.101641737 0.962296784
vn 0.252213806 -0.101443611 0.962339461
vn 0.252620399 -0.101379544 0.962239623
vn -0.0277030505 -0.994255126 -0.10338904
vn -0.0263668671 -0.994797289 -0.0984023288
vn -0.02535142 -0.994796813 -0.0986743569
vn -0.0268601514 -0.994170308 -0.104421116
vn 0.966288447 0.0271497034 -0.256026179
vn 0.966872871 0.0269173738 -0.253835231
vn 0.966967642 0.0271061175 -0.253454119
vn 0.966288447 0.0273752585 -0.256002218
vn -0.703432143 0.101896837 -0.703420401
vn -0.703432143 0.101896845 -0.703420401
vn -0.703432143 0.101896837 -0.703420401
vn -0.00143270288 0.416515708 0.909127414
vn -0.00142809539 0.416513383 0.909128487
vn -0.00143027143 0.416511863 0.909129083
vn -0.00142996677 0.416511357 0.909129381
vn -0.00143019669 0.416511327 0.909129441
vn -0.630008161 -0.182007805 0.754958808
vn -0.629998565 -0.18200776 0.754966915
vn -0.629998505 -0.182007685 0.754966915
vn -0.629997671 -0.182007685 0.75496769
vn -0.629998505 -0.182008818 0.754966617
vn -0.247051701 0.298102021 -0.922008991
vn -0.247051716 0.298102081 -0.922008991
vn -0.247051746 0.298102081 -0.922009051
vn -0.247051746 0.298102051 -0.922009051
vn -0.674957514 0.298102081 -0.674957514
vn -0.674957454 0.298102051 -0.674957454
vn -0.674957395 0.298102111 -0.674957514
vn -0.674957395 0.298102081 -0.674957514
vn 0.00369499321 0.99998641 0.00369499368
vn 0.00408144388 0.99998641 0.00324967131
vn 0.00343973329 0.999988198 0.00343934377
vn 0.00257927901 0.999986708 0.00446781516
vn 0.00257927901 0.999986708 0.00446781516
vn 0.00343973329 0.999988198 0.00343934377
vn 0.00138221669 0.999985814 0.00515849935
vn 0.2429519 -0.286731541 0.926692665
vn 0.240949064 -0.286893845 0.92716527
vn 0.241023704 -0.285862505 0.927464426
vn 0.243005216 -0.286017686 0.926899314
vn 0.6774863 -0.286401093 0.677485645
vn 0.677485943 -0.286401063 0.677485943
vn 0.677485943 -0.286401063 0.677486002
vn 0.67748636 -0.286400914 0.677485704
vn -0.0273043122 -0.999334157 -0.024200771
vn -0.0261784829 -0.999314368 -0.0261784829
vn -0.0165662505 -0.999359906 -0.0317075886
vn -0.0234198421 -0.999451339 -0.0234211609
vn -0.0165662505 -0.999359906 -0.0317075886
vn -0.00690838508 -0.999281168 -0.0372744612
vn -0.0234198421 -0.999451339 -0.0234211609
vn 0.966872096 0.0269157942 -0.25383842
vn 0.967281163 0.052632913 -0.248187214
vn 0.967276931 0.054814674 -0.247730851
vn 0.966967642 0.0271061435 -0.25345403
vn 0.967281163 0.052632913 -0.248187214
vn 0.979929686 0.0613254346 -0.189675361
vn 0.980514884 0.0651018992 -0.185343578
vn 0.967276931 0.054814674 -0.247730851
vn 0.975260794 0.221052706 0.00142305496
vn 0.999994099 -0.0034190868 0.000272363657
vn 0.99974215 -0.00349398074 0.0224358067
vn 0.969148934 0.244523972 0.0309579559
vn -0.703425169 0.101896539 -0.703427494
vn -0.703425527 0.101896927 -0.703427076
vn -0.703426301 0.101896532 -0.703426301
vn -0.703426301 0.101896495 -0.703426301
vn -0.25746879 0.101889133 -0.960899711
vn -0.257471949 0.10189645 -0.960898221
vn -0.257472038 0.101896428 -0.960898101
vn -0.257472247 0.101889029 -0.960898936
vn 0.25229761 -0.101641864 0.962296605
vn 0.252077669 -0.101647958 0.962353647
vn 0.252085537 -0.101330064 0.962385118
vn 0.252168834 -0.101332434 0.962363005
vn 0.252167284 -0.101332933 0.962363362
vn 0.00143019669 -0.416511327 -0.909129441
vn 0.00142987643 -0.416511357 -0.909129441
vn 0.00143042661 -0.41651237 -0.909128904
vn 0.00143017294 -0.416512579 -0.909128904
vn 0.00143117632 -0.416513056 -0.909128606
vn 0.00515949633 0.999985695 0.00138320564
vn 0.00343973329 0.999988198 0.00343934377
vn 0.00408144388 0.99998641 0.00324967131
vn -0.0372783244 -0.999280989 -0.00692297798
vn -0.0273043122 -0.999334157 -0.024200771
vn -0.0234198421 -0.999451339 -0.0234211609
vn -5.97534236e-05 -0.00341778877 0.999994159
vn 0.000346853602 0.0753645226 0.997156024
vn 0.0253929198 0.0880281702 0.995794237
vn 0.0220806934 -0.00349263498 0.999750078
vn 0.703456581 -0.101482786 0.703455806
vn 0.703456581 -0.101482779 0.703455746
vn 0.703456581 -0.101482771 0.703455806
vn -0.71875608 -0.319874078 0.617308736
vn -0.718817711 -0.319848448 0.617250383
vn -0.71881783 -0.319848448 0.617250264
vn -0.71881783 -0.319848418 0.617250264
vn -0.718817413 -0.319848448 0.617250919
vn -0.718818069 -0.319848329 0.617250144
vn -0.718819857 -0.319847584 0.617248356
vn -0.718817413 -0.319848567 0.617250621
vn -0.718817353 -0.319848955 0.617250502
vn -0.718817532 -0.319849104 0.617250443
vn -0.718817592 -0.319848388 0.617250502
g foundation0
f 6/1/1 7/2/2 5/3/3 4/4/4
f 1/5/5 2/6/6 6/7/7 19/8/8 18/9/9 15/10/10
f 2/11/11 3/12/12 7/2/13 6/1/14
f 5/13/15 20/14/16 21/15/17 4/16/18
f 13/17/19 11/18/20 12/19/21 14/20/22
f 8/21/23 23/22/24 24/23/25 13/24/26 9/25/27
f 9/26/28 13/17/29 14/20/30 10/27/31
f 12/28/32 11/29/33 26/30/34 25/31/35
f 2/32/36 1/33/37 8/34/38 9/35/39
f 3/36/40 2/32/41 9/35/42 10/37/43
f 5/38/44 7/39/45 14/40/46 12/41/47
f 7/39/48 3/42/49 10/43/50 14/40/51
f 20/44/52 5/38/53 12/41/54 25/45/55
f 19/8/56 6/7/57 4/46/58 22/47/59
f 16/48/60 1/49/61 15/50/62
f 17/51/63 28/52/64 23/53/65 8/54/66
f 1/33/67 16/55/68 17/56/69 8/34/70
f 4/16/71 21/15/72 22/57/73
f 24/23/74 27/58/75 11/59/76 13/24/77
f 11/29/78 27/60/79 26/30/80
f 15/61/81 18/62/82 28/63/83 17/64/84 16/65/85
f 18/62/86 19/66/87 22/67/88 21/68/89 20/69/90 25/70/91 26/71/92 27/72/93 24/73/94 23/74/95 28/63/96
g foundation1
f 29/75/97 36/48/98 34/76/99 31/77/100 32/78/101
f 30/79/102 33/80/103 38/81/104 37/51/105
f 36/55/106 29/82/107 30/83/108 37/56/109
f 29/84/110 32/85/111 33/86/112 30/87/113
f 34/10/114 35/88/115 31/89/116
f 31/90/117 35/91/118 38/92/119 33/93/120 32/94/121
f 34/95/122 36/96/123 37/97/124 38/98/125 35/99/126
g foundation2
f 41/100/127 42/101/128 40/102/129 39/103/130
f 42/104/131 52/105/132 53/47/133 40/106/134
f 53/107/135 55/108/136 43/109/137 40/110/138
f 40/110/139 43/109/140 39/111/141
f 46/112/142 44/113/143 45/114/144 47/115/145
f 47/116/146 45/117/147 57/118/148 56/23/149
f 59/119/150 57/120/151 45/121/152 48/122/153
f 45/121/154 44/123/155 48/122/156
f 50/85/157 41/124/158 46/125/159 51/86/160
f 41/124/161 39/126/162 44/127/163 46/125/164
f 39/126/165 43/128/166 48/129/167 44/127/168
f 49/89/169 60/130/170 52/105/171 42/104/172
f 50/78/173 49/77/174 42/101/175 41/100/176
f 51/80/177 46/112/178 47/115/179 61/131/180 62/132/181
f 50/133/182 51/134/183 62/135/184 60/136/185 49/137/186
f 54/138/187 43/109/188 55/108/189
f 58/139/190 59/119/191 48/122/192
f 43/140/193 54/141/194 58/142/195 48/143/196
f 61/144/197 47/116/198 56/23/199
f 53/145/200 52/146/201 60/147/202 62/148/203 61/149/204 56/150/205 57/151/206 59/152/207 58/153/208 54/154/209 55/155/210
