# File exported by Houdini 19.0.561 (www.sidefx.com)
# 48 points
# 152 vertices
# 34 primitives
# Bounds: [-0.0288397241, 0.122763537, -0.0288397428] to [0.000234025996, 0.133010074, 0.000205473567]
g 
v -0.0144412853 0.124771431 -0.0250131041
v -0.0133268721 0.122763537 -0.0230828375
v -0.0122893434 0.129381776 -0.0212857667
v -0.0075164726 0.124752119 -0.0269255973
v -0.0108384844 0.128287956 -0.0187728275
v -0.00512449723 0.122763537 -0.0252806582
v -0.012381779 0.129912406 -0.0152304778
v -0.0203739144 0.122763537 -0.0160357971
v -0.0213090312 0.124771431 -0.0181453601
v -0.0139861312 0.131174311 -0.0173030663
v -0.000585680653 0.1247328 -0.0288397428
v 0.000116601092 0.133010074 0.000102271813
v 0.000234025996 0.133010074 -0.0200628955
v -0.0107527515 0.13267377 -0.0186242647
v -0.000256264204 0.132841781 -0.0210822672
v 1.94380553e-11 0.122763537 -0.0266537648
v 0.000116601092 0.130010068 0.000102272308
v 0.000234025996 0.130010068 -0.0200628955
v -0.0100627877 0.130010068 -0.0174292829
v -2.84487212e-10 0.130010068 -0.0201256014
v -0.0122893434 0.129381776 -0.0212857667
v -0.0075164726 0.124752119 -0.0269255973
v -0.0108384844 0.128287956 -0.0187728275
v -0.00512449723 0.122763537 -0.0252806582
v -0.0131879617 0.132673785 -0.0161890555
v -0.000875461148 0.133010074 0.000107343469
v -0.0139861312 0.131174311 -0.0173030701
v -0.0123316636 0.130010068 -0.0151604079
v -0.000787400117 0.130010068 0.000106893764
v -0.0123817753 0.129912406 -0.0152304871
v -0.0250130873 0.124771431 -0.0144413048
v -0.0288397241 0.124732807 -0.000585699803
v -0.0200705193 0.133010074 0.000205473087
v -0.018624248 0.132673785 -0.0107527729
v -0.0210822467 0.132841781 -0.000256284955
v -0.0230828207 0.122763537 -0.0133268917
v -0.0266537443 0.122763537 -1.87716598e-08
v -0.0200705193 0.130010068 0.000205473567
v -0.0174292643 0.130010068 -0.0100628091
v -0.0201255828 0.130010068 -2.05469153e-08
v -0.021309033 0.124771431 -0.0181453601
v -0.0203739144 0.122763537 -0.0160357971
v -0.0123316636 0.130010068 -0.0151604079
v -0.012381766 0.129912421 -0.0152304731
v -0.000875460915 0.133010074 0.000107343469
v -0.000787399185 0.130010068 0.000106893764
v -0.0131879617 0.13267377 -0.0161890555
v -0.0139861247 0.131174311 -0.0173030626
vt 0.279867232 0.516506553 0
vt 0.41316694 0.612967432 0
vt 0.279488444 0.635523856 0
vt 0.529863954 0.736995995 0
vt 0.529863954 0.596679688 0
vt 0.687688351 0.624439776 0
vt 0.52889514 0.784179688 0
vt 0.661995232 0.80992955 0
vt 0.686020792 0.871838272 0
vt 0.528814197 0.840786159 0
vt 0.94502908 0.117707677 0
vt 0.946711838 0.100767732 0
vt 0.991068661 0.0987324789 0
vt 0.910121799 0.0986537412 0
vt 0.87501657 0.103304684 0
vt 0.863724887 0.0946725309 0
vt 0.47006759 0.788773477 0
vt 0.344638705 0.629259348 0
vt 0.348985642 0.819167316 0
vt 0.344208241 0.876689672 0
vt 0.0991935208 0.60257864 0
vt 0.213504568 0.458078057 0
vt 0.863730967 0.124274366 0
vt 0.940262973 0.117265128 0
vt 0.87099719 0.102534257 0
vt 0.900812328 0.120634489 0
vt 0.384646177 0.396832794 0
vt 0.319694608 0.396799952 0
vt 0.266564459 0.0150973992 0
vt 0.279880106 0.001953125 0
vt 0.550373197 0.269302309 0
vt 0.557460487 0.289672732 0
vt 0.280137718 0.431522429 0
vt 0.479240566 0.389648438 0
vt 0.546960831 0.590391576 0
vt 0.213504612 0.458078086 0
vt 0.216207609 0.419840217 0
vt 0.823803186 0.2578125 0
vt 0.994184136 0.355890721 0
vt 0.996475339 0.359847337 0
vt 0.726171732 0.627707422 0
vt 0.714031875 0.615721822 0
vt 0.763252378 0.257890135 0
vt 0.529863954 0.780736327 0
vt 0.786290348 0.641783118 0
vt 0.723485112 0.814792752 0
vt 0.795210183 0.835701585 0
vt 0.784236789 0.891238272 0
vt 0.213452816 0.0612371452 0
vt 0.001953125 0.0509058833 0
vt 0.0303280447 0.001953125 0
vt 0.214268997 0.00466107251 0
vt 0.713550985 0.996066093 0
vt 0.333007812 0.996066093 0
vt 0.333007812 0.939453125 0
vt 0.713550985 0.939453125 0
vt 0.0587819256 0.59765625 0
vt 0.0583176799 0.618614614 0
vt 0.00390625 0.610139191 0
vt 0.00431111921 0.605711937 0
vt 0.470228553 0.791225731 0
vt 0.470067739 0.788773358 0
vt 0.715916812 0.937472343 0
vt 0.697195351 0.937472343 0
vt 0.698857188 0.880859375 0
vt 0.715916812 0.880859375 0
vt 0.999964893 0.0333894938 0
vt 0.995476782 0.0286932625 0
vt 0.969361603 0.00480029732 0
vt 0.966308415 0.0182149112 0
vt 0.978572011 0.0109740049 0
vt 0.959864199 0.0426842719 0
vt 0.966252506 0.0317242183 0
vt 0.933607161 0.00257276068 0
vt 0.93039763 0 0
vt 0.885551333 0.00245501683 0
vt 0.914505422 0.0607366785 0
vt 0.863458216 0.0170247648 0
vt 0.812998414 0.213123634 0
vt 0.609689116 0.220802456 0
vt 0.559570312 0.023055708 0
vt 0.829995871 0.001953125 0
vt 0.336242706 0.814792812 0
vt 0.2734375 0.641783059 0
vt 0.470067799 0.788773835 0
vt 0.470228583 0.791225731 0
vt 0.230431333 0.732421875 0
vt 0.262316018 0.913695693 0
vt 0.001953125 0.913695753 0
vt 0.0338377953 0.732421875 0
vt 0.53101933 0.845703125 0
vt 0.531423092 0.866340637 0
vt 0.47691527 0.858147025 0
vt 0.4765625 0.85425514 0
vt 0.98899585 0.951989353 0
vt 0.717773438 0.949026763 0
vt 0.729052842 0.893554688 0
vt 0.989390194 0.895383239 0
vt 0.215245485 0.670046508 0
vt 0.00374598894 0.680377901 0
vt 0.0029296875 0.623801589 0
vt 0.186870575 0.62109375 0
vt 0.251953125 0.83803755 0
vt 0.273245126 0.890491068 0
vt 0.86379844 0.0618746504 0
vt 0.873778999 0.0569504127 0
vt 0.888926446 0.0792816728 0
vt 0.872861564 0.0894722119 0
vt 0.334960938 0.937472343 0
vt 0.334960938 0.880859375 0
vt 0.174698889 0.396726668 0
vt 0.001953125 0.289456159 0
vt 0.00892471429 0.269421279 0
vt 0.266564459 0.0150973964 0
vt 0.0734921321 0.393761247 0
vt 0.216207623 0.419840217 0
vt 0.213504612 0.458078027 0
vt 0.0991935134 0.60257864 0
vt 0.001953125 0.584809959 0
vt 0.763252378 0.257890165 0
vt 0.455078125 0.360059053 0
vt 0.45708105 0.356579632 0
vt 0.627209783 0.258064598 0
vt 0.919602334 0.0416486859 0
vt 0.919515491 0.0414977148 0
vt 0.999466658 0.0583081357 0
vt 0.991562128 0.0807377696 0
vt 0.867713511 0.0487598367 0
vt 0.90584898 0.0982727557 0
vn -0.195844367 0.670187652 -0.715886474
vn -0.195844367 0.670187652 -0.715886474
vn -0.195844367 0.670187652 -0.715886474
vn 0.19524774 -0.656439066 0.728674173
vn 0.19524774 -0.656439066 0.728674173
vn 0.195247754 -0.656439066 0.728674173
vn -0.183197379 -0.73225081 -0.655932486
vn -0.179201141 -0.746050417 -0.641323447
vn -0.173208326 -0.743059456 -0.646422029
vn -0.176526383 -0.731309891 -0.658805132
vn 0.660603285 0.748678982 -0.0555241704
vn 0.66060245 0.748679757 -0.055524949
vn 0.660602748 0.748679519 -0.0555245467
vn 0.660603106 0.748679101 -0.0555255078
vn 0.66060698 0.748676181 -0.0555197373
vn 0.660602629 0.748679698 -0.0555231869
vn 0.533426285 -0.656438649 0.533427179
vn 0.533426523 -0.656438887 0.533426702
vn 0.533426404 -0.656439185 0.533426523
vn 0.53342557 -0.656439364 0.533427179
vn -0.482280225 -0.731308103 -0.482280344
vn -0.482280225 -0.731308043 -0.482280344
vn -0.482280254 -0.731308043 -0.482280403
vn -0.482280254 -0.731308043 -0.482280403
vn -0.52513653 0.66967392 -0.525136709
vn -0.525136828 0.669674158 -0.525136173
vn -0.525137603 0.669673443 -0.525136232
vn -0.525136709 0.669673562 -0.525136769
vn -0.514085472 0.495886147 0.699866474
vn -0.514085174 0.495886445 0.699866474
vn -0.514084518 0.495885551 0.699867606
vn -0.514084876 0.495885283 0.699867547
vn -0.0208935235 0.999563277 -0.0208996478
vn -0.0117496019 0.999861896 -0.0117557254
vn -0.000105067011 0.999788821 -0.0205520689
vn -0 1 -0
vn -0.321178138 0.947016954 -0.00187027024
vn -0.0485916138 0.988972127 -0.139903635
vn -0.179820701 0.667852581 -0.72224474
vn -0.17666015 0.684137285 -0.707635105
vn -0.192834482 0.682376683 -0.705107749
vn -0.19584544 0.670186937 -0.715886831
vn -0.19584164 0.67018944 -0.715885639
vn -0.525137067 0.669673502 -0.52513653
vn -0.525134504 0.66967392 -0.525138795
vn -0.525133073 0.669676065 -0.525137424
vn -0.525134385 0.669675708 -0.525136411
vn -0 -1 -0
vn -0 -1 -0
vn -0 -1 -0
vn -0 -1 -0
vn 0 -1 -0
vn -0 -1 0
vn 0.195248008 -0.656438231 0.728674769
vn 0.195248887 -0.656438351 0.728674471
vn 0.195247903 -0.656439006 0.728674173
vn 0.195247933 -0.656438828 0.728674352
vn 0.195247889 -0.656438887 0.728674352
vn -0.179200426 -0.746050119 -0.641324043
vn -0.176711589 -0.754360616 -0.632228613
vn -0.169899002 -0.754379451 -0.634070873
vn -0.17320843 -0.743059516 -0.646421909
vn 0.98049885 0.113589592 -0.160372809
vn 0.993353307 0.055903364 -0.100618586
vn 0.995200098 0.0654999465 -0.0727076083
vn 0.980756998 0.130672902 -0.145052299
vn 0.999983072 0 0.00582305714
vn 0.999982953 9.60346469e-10 0.00582305621
vn 0.999983013 9.60346469e-10 0.00582305668
vn 0.999983072 0 0.00582305714
vn 0.903403819 -0.0616037063 -0.424342334
vn 0.901180685 -0 -0.433443576
vn 0.258814394 -0 -0.965927064
vn 0.247700199 -0.289899021 -0.924447477
vn 0.533413053 -0.656460762 0.533413231
vn 0.533397794 -0.656462431 0.533426523
vn 0.533425868 -0.65643847 0.533427775
vn 0.533426821 -0.656438351 0.533427119
vn 0.00511216838 1.64919214e-07 0.999986947
vn 0.00511216838 1.61186165e-07 0.999986947
vn 0.00511215581 1.60830268e-07 0.999986887
vn 0.00511215581 1.64919228e-07 0.999986947
vn -0.660602093 -0.748680294 0.0555237383
vn -0.660606921 -0.74867624 0.0555198453
vn -0.660603106 -0.748679101 0.0555255078
vn -0.660602748 -0.748679519 0.0555245467
vn -0.660601437 -0.748680532 0.0555266514
vn -0.660603046 -0.748679161 0.0555251949
vn -0.797421575 -0.0234975964 0.602964878
vn -0.797421634 -0.023497574 0.602964878
vn -0.797421336 -0.0234979745 0.602965117
vn -0.797422051 -0.0235005338 0.602964222
vn -0.797421575 -0.0235011857 0.602964818
vn -0.797421575 -0.0234975927 0.602964759
vn -0.707634866 0.684137881 -0.176658884
vn -0.722246885 0.667850435 -0.179819942
vn -0.715886176 0.67018795 -0.195845008
vn -0.705107391 0.68237704 -0.192834154
vn 0.533426464 -0.656439006 0.533426702
vn 0.533426523 -0.656438947 0.533426762
vn 0.533426523 -0.656438887 0.533426762
vn 0.533432662 -0.656444311 0.533413827
vn 0.53342253 -0.656445444 0.533422709
vn 0.728674471 -0.656438708 0.195247903
vn 0.728674471 -0.656438768 0.19524768
vn 0.728674352 -0.656439006 0.195247635
vn 0.728674233 -0.656439066 0.195247844
vn -0.415204942 1.45620831e-07 0.909727871
vn -0.406992912 -0.0549843833 0.911774874
vn -0.924445331 -0.289896578 0.247711286
vn -0.965924084 4.14304395e-08 0.258825779
vn -0.632229745 -0.754359722 -0.176711842
vn -0.655932844 -0.73225069 -0.18319656
vn -0.658805311 -0.731309831 -0.176526263
vn -0.634072065 -0.754378617 -0.169899061
vn -0.100618571 0.0559036136 0.993353307
vn -0.160372481 0.113589585 0.98049885
vn -0.145052001 0.130672827 0.980757236
vn -0.0727076307 0.0655001551 0.995200157
vn -0.482280344 -0.731308043 -0.482280225
vn -0.482280195 -0.731308222 -0.482280105
vn -0.482280076 -0.731308222 -0.482280225
vn -0.482280225 -0.731308043 -0.482280403
vn 0.514086425 -0.495886743 -0.699865282
vn 0.514085054 -0.495884895 -0.699867666
vn 0.51408428 -0.495885491 -0.699867845
vn 0.51408577 -0.495887488 -0.699865222
vn 0.00511216652 1.62332341e-07 0.999986947
vn 0.00511216745 1.60068666e-07 0.999986947
vn 0.00511216698 1.60068652e-07 0.999986947
vn 0.00511216652 1.62327964e-07 0.999986947
vn -0.0117520439 0.999861836 -0.0117547922
vn -0.0208861958 0.999563634 -0.0208889544
vn -0.142049789 0.98864162 -0.0490874387
vn -0.00173342321 0.940758288 -0.339073569
vn -0.000105071638 0.999788821 -0.0205529798
vn -0.525135815 0.669673443 -0.525138021
vn -0.5251351 0.669674754 -0.525137186
vn -0.525136292 0.669674516 -0.525136054
vn -0.525136232 0.669674516 -0.525136113
vn -0.525136769 0.669673622 -0.52513665
vn -0 -1 -0
vn -0 -0.99999994 -0
vn 0 -1 -0
vn -0 -1 0
vn -0 -1 -0
vn 0.797421634 0.0234945863 -0.602964878
vn 0.797420979 0.0234955717 -0.602965772
vn 0.797421694 0.023498131 -0.602964759
vn 0.797421634 0.0234983042 -0.602964818
vn 0.797421575 0.0234977826 -0.602964938
vn 0.797421634 0.0234977808 -0.602964818
g roof_low0
f 3/1/1 4/2/2 1/3/3
f 5/4/4 2/5/5 6/6/6
f 1/7/7 4/8/8 6/9/9 2/10/10
f 7/11/11 5/12/12 6/13/13 4/14/14 3/15/15 10/16/16
f 7/17/17 8/18/18 2/5/19 5/4/20
f 9/19/21 1/7/22 2/10/23 8/20/24
f 9/21/25 10/22/26 3/1/27 1/3/28
f 7/23/29 10/24/30 9/25/31 8/26/32
g roof_low1
f 14/27/33 25/28/34 26/29/35 12/30/36 13/31/37 15/32/38
f 14/33/39 15/34/40 11/35/41 22/2/42 21/1/43
f 27/36/44 25/37/45 14/33/46 21/1/47
f 19/38/48 20/39/49 18/40/50 17/41/51 29/42/52 28/43/53
f 19/44/54 23/4/55 24/6/56 16/45/57 20/46/58
f 22/8/59 11/47/60 16/48/61 24/9/62
f 11/49/63 15/50/64 20/51/65 16/52/66
f 13/53/67 12/54/68 17/55/69 18/56/70
f 15/57/71 13/58/72 18/59/73 20/60/74
f 28/61/75 30/62/76 23/4/77 19/44/78
f 12/63/79 26/64/80 29/65/81 17/66/82
f 27/67/83 21/68/84 22/69/85 24/70/86 23/71/87 30/72/88
f 26/73/89 25/74/90 27/75/91 30/76/92 28/77/93 29/78/94
g roof_low2
f 35/79/95 34/80/96 31/81/97 32/82/98
f 39/83/99 36/84/100 42/18/101 44/85/102 43/86/103
f 40/87/104 37/88/105 36/89/106 39/90/107
f 33/91/108 35/92/109 40/93/110 38/94/111
f 32/95/112 31/96/113 36/97/114 37/98/115
f 35/99/116 32/100/117 37/101/118 40/102/119
f 31/103/120 41/19/121 42/20/122 36/104/123
f 44/105/124 42/106/125 41/107/126 48/108/127
f 45/64/128 33/109/129 38/110/130 46/65/131
f 47/28/132 34/111/133 35/112/134 33/113/135 45/114/136
f 34/115/137 47/116/138 48/117/139 41/118/140 31/119/141
f 43/120/142 46/42/143 38/121/144 40/122/145 39/123/146
f 43/124/147 44/125/148 48/126/149 47/127/150 45/128/151 46/129/152
