# File exported by Houdini 19.0.589 (www.sidefx.com)
# 28 points
# 84 vertices
# 20 primitives
# Bounds: [0, -1.62920671e-07, -1] to [1, 0.0998786837, 0]
g 
v 0 0 0
v 0 -1.62920671e-07 -1
v 0 0.0998786837 -1.62723026e-08
v 0 0.0998785198 -1
v 0.31298238 0 0
v 0.291625202 0.0998786837 -1.62723026e-08
v 0.653792858 -1.62920671e-07 -1
v 0.499886543 -7.2796567e-08 -0.446822107
v 0.651625812 0.0998785198 -1
v 0.535835743 0.0998785868 -0.583821416
v 1 0.0998786837 -1.62723026e-08
v 0.857951462 0 0
v 1 0.0998786837 -0.00460036192
v 1 0.0973521471 -1.58606781e-08
v 0.312982351 0 0
v 0.499886423 -7.2796503e-08 -0.446821779
v 0.291625202 0.0998786837 -1.62723026e-08
v 0.535835624 0.0998785868 -0.583821118
v 1 0 0
v 1 -1.62920671e-07 -1
v 1 0.0998785198 -1
v 0.857951462 0 0
v 1 0.0998786837 -0.00460036192
v 1 0.0973521471 -1.58606781e-08
v 0.653792858 -1.62920671e-07 -1
v 0.499886394 -7.27965102e-08 -0.446821809
v 0.535835624 0.0998785868 -0.583821118
v 0.651625812 0.0998785198 -1
vt 0.0870714486 0.326171875 0
vt 0.00146726461 0.00129359867 0
vt 0.296500176 0.00534151634 0
vt 0.543004096 0.0397121496 0
vt 0.583984375 0.19523719 0
vt 0.603545129 0.860351562 0
vt 0.603574812 0.911676645 0
vt 0.268721372 0.911870241 0
vt 0.267578125 0.860545814 0
vt 0.909317672 0.667730212 0
vt 0.857992589 0.667730212 0
vt 0.857992589 0.153856531 0
vt 0.909317613 0.153856456 0
vt 0.325195312 0.345580637 0
vt 0.607765138 0.184617102 0
vt 0.81283015 0.099609375 0
vt 0.853454292 0.431989551 0
vt 0.34337604 0.494332284 0
vt 0.731333792 0.471561611 0
vt 0.719153047 0.522613883 0
vt 0.569335938 0.519084215 0
vt 0.570544839 0.467773438 0
vt 0.870905876 0.0410864875 0
vt 0.892513633 0.0693198889 0
vt 0.948796809 0.078004837 0
vt 0.863506675 0.0457588397 0
vt 0.991004646 0.0447386168 0
vt 0.967609584 0.0246681962 0
vt 0.944929898 0.0449487083 0
vt 0.967485785 0.0393295884 0
vt 0.367512047 0.827369273 0
vt 0.366172463 0.829317033 0
vt 0.0009765625 0.939399421 0
vt 0.067582719 0.62109375 0
vt 0.940166473 0.706178725 0
vt 0.988136351 0.631815791 0
vt 0.989434123 0.631779552 0
vt 0.999594152 0.995653331 0
vt 0.947982788 0.986115217 0
vt 0.493872941 0.00220020721 0
vt 0.491210938 0.00176669355 0
vt 0.493438989 0.0009765625 0
vt 0.852795899 0.997761667 0
vt 0.608398438 0.950694382 0
vt 0.795534611 0.723632812 0
vt 0.906854689 0.0527967177 0
vt 0.863587201 0.019452747 0
vt 0.875653923 0.0373803079 0
vt 1 0.0834718421 0
vt 0.899394929 0.0347859785 0
vt 0.912512779 0.0772721395 0
vt 0.924849153 0.0954597443 0
vt 0.876185536 0.0674708486 0
vt 0.863991559 0.100079402 0
vt 0.564017415 0.0009765625 0
vt 0.567610919 0.0508740544 0
vt 0.491210938 0.00621995982 0
vt 0.962170124 0.667730153 0
vt 0.910845041 0.667742014 0
vt 0.910726964 0.156232312 0
vt 0.912024677 0.15386802 0
vt 0.962051451 0.153856456 0
vt 0.327148438 0.785846591 0
vt 0.753941238 0.50390625 0
vt 0.852615893 0.65327698 0
vt 0.706969678 0.820803702 0
vt 0.892876148 0.0260189585 0
vt 0.863512039 0.0132706277 0
vt 0.919061661 4.11129658e-05 0
vt 0.917247474 0.0305352267 0
vt 0.892183006 0.00517866341 0
vt 0.217729539 0.721421003 0
vt 0.001953125 0.520171285 0
vt 0.0839835182 0.362304688 0
vt 0.539972305 0.599244833 0
vt 0.506315291 0.66401732 0
vt 0.373851269 0.859375 0
vt 0.372642606 0.808052123 0
vt 0.551662743 0.807720244 0
vt 0.551757812 0.859045208 0
vt 0.938987195 0.0422692858 0
vt 0.923215389 0.00135855342 0
vt 0.996266425 0.0298626143 0
vt 0.983531773 8.70370204e-05 0
vn -7.09550987e-15 -1 1.62920685e-07
vn -7.09550987e-15 -1 1.62920685e-07
vn -7.09550987e-15 -1 1.62920685e-07
vn -7.09550987e-15 -1 1.62920685e-07
vn -7.09550987e-15 -1 1.62920685e-07
vn 0 0 -1
vn 0 0 -1
vn 0 0 -1
vn 0 0 -1
vn -0.99999994 0 0
vn -0.99999994 0 0
vn -0.99999994 0 0
vn -0.99999994 0 0
vn 1.18876087e-09 1 -1.63484813e-07
vn 1.18876098e-09 1 -1.63484813e-07
vn 1.18876087e-09 1 -1.63484813e-07
vn 1.18876087e-09 1 -1.63484813e-07
vn 1.18876087e-09 1 -1.63484813e-07
vn 0 1.62920685e-07 1
vn 0 1.62920685e-07 1
vn 0 1.62920685e-07 1
vn 0 1.62920685e-07 1
vn 0.905099392 0.193538427 0.378599972
vn 0.937674463 0.113184579 0.328566283
vn 0.937674463 0.113184579 0.328566283
vn 0.905099392 0.193538427 0.378599972
vn 0.937674463 0.113184579 0.328566283
vn 0.963197052 0.0208981931 0.267982692
vn 0.963197052 0.0208981931 0.267982692
vn 0.937674463 0.113184579 0.328566283
vn -1.0718757e-09 0.99999994 -1.65050594e-07
vn -1.0718757e-09 0.99999994 -1.65050594e-07
vn -1.0718757e-09 0.99999994 -1.65050594e-07
vn -1.0718757e-09 0.99999994 -1.65050594e-07
vn 8.84349248e-16 1.62920657e-07 1
vn 8.84349248e-16 1.62920657e-07 1
vn 8.84349248e-16 1.62920657e-07 1
vn 8.84349248e-16 1.62920657e-07 1
vn 8.84349248e-16 1.62920657e-07 1
vn 1 0 0
vn 1 0 0
vn 1 0 0
vn 0 -1 1.62920671e-07
vn 0 -1 1.62920671e-07
vn 0 -1 1.62920671e-07
vn 0.51494354 -0.751364708 -0.412655026
vn 0.51494354 -0.751364708 -0.412655026
vn 0.51494354 -0.751364708 -0.412655026
vn 0.51494354 -0.751364708 -0.412655026
vn 0.51494354 -0.751364708 -0.412655026
vn -0.905099392 -0.193538353 -0.378600061
vn -0.905099392 -0.193538353 -0.378600061
vn -0.905099392 -0.193538353 -0.378600061
vn -0.905099392 -0.193538353 -0.378600061
vn 0 1.62920685e-07 1
vn 0 1.62920685e-07 1
vn 0 1.62920685e-07 1
vn 1 0 0
vn 1 0 0
vn 1 0 0
vn 1 0 0
vn 1 0 0
vn -2.42215337e-09 1 -1.63822605e-07
vn -2.42215337e-09 1 -1.63822605e-07
vn -2.42215337e-09 1 -1.63822605e-07
vn -2.42215337e-09 1 -1.63822605e-07
vn -0.51494354 0.751364768 0.412655056
vn -0.51494354 0.751364768 0.412655056
vn -0.51494354 0.751364768 0.412655056
vn -0.51494354 0.751364768 0.412655056
vn -0.51494354 0.751364768 0.412655056
vn 0 -1 1.62920671e-07
vn 0 -1 1.62920671e-07
vn 0 -1 1.62920671e-07
vn 0 -1 1.62920671e-07
vn 0 -1 1.62920671e-07
vn 0 0 -1
vn 0 0 -1
vn 0 0 -1
vn 0 0 -1
vn -0.963196993 -0.0208981782 -0.267982781
vn -0.963196993 -0.0208981782 -0.267982781
vn -0.963196993 -0.0208981782 -0.267982781
vn -0.963196993 -0.0208981782 -0.267982781
g floor_tile0
f 2/1/1 7/2/2 8/3/3 5/4/4 1/5/5
f 2/6/6 4/7/7 9/8/8 7/9/9
f 1/10/10 3/11/11 4/12/12 2/13/13
f 6/14/14 10/15/15 9/16/16 4/17/17 3/18/18
f 5/19/19 6/20/20 3/21/21 1/22/22
f 5/23/23 8/24/24 10/25/25 6/26/26
f 8/27/27 7/28/28 9/29/29 10/30/30
g floor_tile1
f 11/31/31 13/32/32 18/33/33 17/34/34
f 12/35/35 14/36/36 11/37/37 17/38/38 15/39/39
f 14/40/40 13/41/41 11/42/42
f 15/43/43 16/44/44 12/45/45
f 12/46/46 16/47/47 18/48/48 13/49/49 14/50/50
f 17/51/51 18/52/52 16/53/53 15/54/54
g floor_tile2
f 19/55/55 24/56/56 22/57/57
f 20/58/58 21/59/59 23/60/60 24/61/61 19/62/62
f 23/63/63 21/64/64 28/65/65 27/66/66
f 22/67/67 24/68/68 23/69/69 27/70/70 26/71/71
f 26/72/72 25/73/73 20/74/74 19/75/75 22/76/76
f 25/77/77 28/78/78 21/79/79 20/80/80
f 27/81/81 28/82/82 25/83/83 26/84/84
