# File exported by Houdini 19.0.589 (www.sidefx.com)
# 24 points
# 72 vertices
# 18 primitives
# Bounds: [0, -4.07301677e-08, -0.250000328] to [1, 2, 0]
g 
v 0 2 -3.25841341e-07
v 0 2 -0.250000328
v 1 0.369199395 -6.01502137e-08
v 0 0.763307333 -1.2435855e-07
v 1 0.447808444 -0.25000006
v 0 0.841916502 -0.250000119
v 0.165057465 2 -0.250000328
v 0.25762403 2 -3.25841341e-07
v 1 0.823894382 -1.34229438e-07
v 1 0.677246213 -0.250000119
v 1 2 -3.25841341e-07
v 1 2 -0.250000328
v 1 0.82389462 -1.34229467e-07
v 0.25762412 2 -3.25841341e-07
v 1 0.677246511 -0.250000119
v 0.16505754 2 -0.250000328
v 0 0 0
v 1 0 0
v 0 -4.07301677e-08 -0.25
v 1 -4.07301677e-08 -0.25
v 1 0.369199395 -6.01502137e-08
v 0 0.763307333 -1.2435855e-07
v 1 0.447808444 -0.25000006
v 0 0.841916502 -0.250000119
vt 0.383515 0.746346772 0
vt 0.819031119 0.740008295 0
vt 0.8203125 0.828048766 0
vt 0.41247952 0.833984375 0
vt 0.00109688612 0.0773049816 0
vt 0.142016992 0.00123005046 0
vt 0.630725086 0.0345348381 0
vt 0.673828125 0.114378236 0
vt 0.290549517 0.321289062 0
vt 0.800985336 0.668050885 0
vt 0.72086364 0.678558886 0
vt 0.658203125 0.597972929 0
vt 0.81698668 0.577148438 0
vt 0.662936091 0.453125 0
vt 0.259588867 0.392511219 0
vt 0.268227905 0.335023612 0
vt 0.772628486 0.113455229 0
vt 0.852539062 0.125463948 0
vt 0.951730371 0.0747530982 0
vt 0.994869888 0 0
vt 0.974666595 0.0722851306 0
vt 0.9863199 0.0625087619 0
vt 0.323165029 0.759445488 0
vt 0.379844099 0.746524811 0
vt 0.399414062 0.832372308 0
vt 0.310948581 0.852539062 0
vt 0.929852247 0.0641373098 0
vt 0.951785922 0.00665472774 0
vt 0.863483608 0.0181626324 0
vt 0.984799087 9.82271958e-05 0
vt 0.845041573 0.1596158 0
vt 0.853515625 0.573752582 0
vt 0.592106044 0.579101562 0
vt 0.86928612 0.62172693 0
vt 0.857992589 0.155990914 0
vt 0.94601649 0.153856456 0
vt 0.956058025 0.567958295 0
vt 0.0124009885 0.0916853622 0
vt 0.296875 0.563476562 0
vt 0.00287036248 0.557460725 0
vt 0.571211576 0.997983396 0
vt 0.27734375 0.98718375 0
vt 0.31315726 0.900390625 0
vt 0.574445188 0.909992993 0
vt 0.886220992 0.0652463511 0
vt 0.863480568 0.0350078531 0
vt 1 0.101206273 0
vt 0.868394852 0.0537251197 0
vt 0.0210181642 0.569114625 0
vt 0.150896519 0.562800109 0
vt 0.306640625 0.907843411 0
vt 0.0381214358 0.920898438 0
vt 0.687359452 0.00132571731 0
vt 0.84375 0.0217442177 0
vt 0.804897785 0.10546875 0
vt 0.675960243 0.0886345506 0
vt 0.54036516 0.463867188 0
vt 0.655541599 0.737106919 0
vt 0.277081728 0.746003926 0
vt 0.215820312 0.60066992 0
vt 0.909750402 0.952344954 0
vt 0.909750402 0.600145519 0
vt 0.997800231 0.600145519 0
vt 0.997800231 0.952344835 0
vt 0.85277921 0.918087065 0
vt 0.584067822 0.926280737 0
vt 0.553710938 0.83911562 0
vt 0.85009557 0.830078125 0
vt 0.935479581 0.0845638067 0
vt 0.871244311 0.0918120071 0
vt 0.988764524 0.118325159 0
vt 0.863724887 0.0605370849 0
vn -0.99999994 0 0
vn -0.99999994 0 0
vn -0.99999994 0 0
vn -0.99999994 0 0
vn -7.12544698e-15 1.62920671e-07 0.99999994
vn -7.12544698e-15 1.62920671e-07 0.99999994
vn -7.12544698e-15 1.62920671e-07 0.99999994
vn -7.12544698e-15 1.62920671e-07 0.99999994
vn -7.12544698e-15 1.62920671e-07 0.99999994
vn 1 -0 0
vn 1 -0 0
vn 1 -0 0
vn 1 -0 0
vn -2.75044183e-08 -1.88469826e-07 -1
vn -2.75044183e-08 -1.88469826e-07 -1
vn -2.75044183e-08 -1.88469826e-07 -1
vn -2.75044183e-08 -1.88469826e-07 -1
vn -2.75044183e-08 -1.88469826e-07 -1
vn -0.351911396 -0.892931342 -0.280770153
vn -0.351911396 -0.892931342 -0.280770153
vn -0.351911396 -0.892931342 -0.280770153
vn -0.351911396 -0.892931342 -0.280770153
vn 0 1 0
vn 0 1 0
vn 0 1 0
vn 0 1 0
vn 0.806995034 0.509387612 -0.298803061
vn 0.806995034 0.509387612 -0.298803061
vn 0.806995034 0.509387612 -0.298803061
vn 0.806995034 0.509387612 -0.298803061
vn 0 1.62920657e-07 0.99999994
vn 0 1.62920657e-07 0.99999994
vn 0 1.62920657e-07 0.99999994
vn 1 -0 0
vn 1 -0 0
vn 1 -0 0
vn 1 -0 0
vn 0 -1.57713643e-07 -1
vn 0 -1.57713643e-07 -1
vn 0 -1.57713643e-07 -1
vn 0 1 0
vn 0 1 0
vn 0 1 0
vn 0 1 0
vn -0.806994975 -0.509387612 0.298803002
vn -0.806994975 -0.509387612 0.298803002
vn -0.806994975 -0.509387612 0.298803002
vn -0.806994975 -0.509387612 0.298803002
vn 0 1.62920685e-07 1
vn 0 1.62920685e-07 1
vn 0 1.62920685e-07 1
vn 0 1.62920685e-07 1
vn 1 -0 0
vn 1 -0 0
vn 1 -0 0
vn 1 -0 0
vn 2.48176346e-09 -1.38644992e-07 -1
vn 2.48176346e-09 -1.38644992e-07 -1
vn 2.48176346e-09 -1.38644992e-07 -1
vn 2.48176346e-09 -1.38644992e-07 -1
vn 0 -1 1.62920671e-07
vn 0 -1 1.62920671e-07
vn 0 -1 1.62920671e-07
vn 0 -1 1.62920671e-07
vn -1 0 0
vn -1 0 0
vn -1 0 0
vn -1 0 0
vn 0.351911396 0.892931342 0.280770153
vn 0.351911396 0.892931342 0.280770153
vn 0.351911396 0.892931342 0.280770153
vn 0.351911396 0.892931342 0.280770153
g simple_wall0
f 4/1/1 1/2/2 2/3/3 6/4/4
f 3/5/5 9/6/6 8/7/7 1/8/8 4/9/9
f 5/10/10 10/11/11 9/12/12 3/13/13
f 6/14/14 2/15/15 7/16/16 10/17/17 5/18/18
f 4/19/19 6/20/20 5/21/21 3/22/22
f 7/23/23 2/24/24 1/25/25 8/26/26
f 8/27/27 9/28/28 10/29/29 7/30/30
g simple_wall1
f 13/31/31 11/32/32 14/33/33
f 15/34/34 12/35/35 11/36/36 13/37/37
f 15/38/38 16/39/39 12/40/40
f 12/41/41 16/42/42 14/43/43 11/44/44
f 13/45/45 14/46/46 16/47/47 15/48/48
g simple_wall2
f 18/49/49 21/50/50 22/51/51 17/52/52
f 20/53/53 23/54/54 21/55/55 18/56/56
f 19/57/57 24/58/58 23/59/59 20/60/60
f 19/61/61 20/62/62 18/63/63 17/64/64
f 17/65/65 22/66/66 24/67/67 19/68/68
f 22/69/69 21/70/70 23/71/71 24/72/72
