# File exported by Houdini 19.0.589 (www.sidefx.com)
# 24 points
# 72 vertices
# 18 primitives
# Bounds: [0, -1.62920671e-07, -1.00000024] to [1, 2, 0]
g 
v 1 0 0
v 1 -1.62920671e-07 -1
v 0 0.758040905 -1.23500541e-07
v 0 0.738008559 -1
v 0.529400468 -1.62920671e-07 -1
v 0.543770254 0 0
v 1 1.24943185 -1.00000012
v 0 1.03122902 -1.00000012
v 1 1.35639763 -2.20985214e-07
v 0 1.13819492 -1.85435482e-07
v 0 0 0
v 0 -1.62920671e-07 -1
v 0 0.758040905 -1.23500541e-07
v 0 0.738008499 -1.00000012
v 0.529400408 -1.62920671e-07 -1
v 0.543770254 0 0
v 0 2 -3.25841341e-07
v 0 1.99999976 -1.00000024
v 1 2 -3.25841341e-07
v 1 1.99999976 -1.00000024
v 0 1.13819492 -1.85435482e-07
v 0 1.0312289 -1.00000012
v 1 1.24943185 -1.00000012
v 1 1.35639763 -2.20985214e-07
vt 0.550833404 0.258171856 0
vt 0.779194951 0.191946268 0
vt 0.8515625 0.217545837 0
vt 0.818110526 0.483398438 0
vt 0.509747803 0.374316961 0
vt 0.858824849 0.154468358 0
vt 0.982016027 0.155753419 0
vt 0.9792853 0.417528331 0
vt 0.859855831 0.416282505 0
vt 0.897656441 2.00247778e-05 0
vt 0.897593677 2.4494333e-05 0
vt 0.897626638 1.153424e-05 0
vt 0.897608399 0 0
vt 0.38176018 0.261297792 0
vt 0.0565066114 0.295887828 0
vt 0.0009765625 0.0385279283 0
vt 0.35407564 0.0009765625 0
vt 0.739556551 0.200734347 0
vt 0.397191584 0.294943005 0
vt 0.3828125 0.0273801833 0
vt 0.478766263 0.0009765625 0
vt 0.707869053 0.085578531 0
vt 0.890612662 0.425661176 0
vt 0.989828527 0.417883933 0
vt 0.982369781 0.681060851 0
vt 0.905842543 0.687059581 0
vt 0.931764662 1.89394686e-05 0
vt 0.931731105 0 0
vt 0.931729078 1.89394686e-05 0
vt 0.931762695 0 0
vt 0.290073633 0.85546875 0
vt 0.284453869 0.657101452 0
vt 0.546286523 0.654930055 0
vt 0.551757812 0.848055303 0
vt 0.817159176 0.839998484 0
vt 0.815526247 0.978580177 0
vt 0.553710938 0.979257345 0
vt 0.555388153 0.836914062 0
vt 0.857992589 0.83528322 0
vt 0.877951443 0.643114269 0
vt 0.995842397 0.849600434 0
vt 0.001953125 0.499121904 0
vt 0.0326629132 0.256835938 0
vt 0.127139002 0.431350797 0
vt 0.863478184 0 0
vt 0.863473415 8.83634948e-06 0
vt 0.863458216 2.34433337e-05 0
vt 0.863495767 2.54837196e-05 0
vt 0.001953125 0.799039483 0
vt 0.0174290109 0.545898438 0
vt 0.278730333 0.561873257 0
vt 0.266740173 0.757997692 0
vt 0.00348997139 0.992620468 0
vt 0.0284108929 0.797716677 0
vt 0.288085938 0.830919385 0
vt 0.26671657 0.998046875 0
vt 0.685718477 0.563885093 0
vt 0.853515625 0.579128146 0
vt 0.829831719 0.83984375 0
vt 0.605145693 0.819432795 0
vt 0.130859375 0.2890625 0
vt 0.392648548 0.2890625 0
vt 0.392648548 0.550851643 0
vt 0.130859375 0.550851643 0
vt 0.659061611 0.429995149 0
vt 0.654309213 0.655556321 0
vt 0.392578125 0.650041819 0
vt 0.3979204 0.396484375 0
vt 0.999879837 0.0931921154 0
vt 0.987131536 0.0341354497 0
vt 0.863458216 0.0931921229 0
vt 0.876206458 0.0341354497 0
vn -3.27867937e-08 -1.26150141e-07 -1
vn -3.27867937e-08 -1.26150141e-07 -1
vn -3.27867937e-08 -1.26150141e-07 -1
vn -3.27867937e-08 -1.26150141e-07 -1
vn -3.27867937e-08 -1.26150141e-07 -1
vn 0 -0.99999994 1.62920671e-07
vn 0 -0.99999994 1.62920671e-07
vn 0 -0.99999994 1.62920671e-07
vn 0 -0.99999994 1.62920671e-07
vn -0.812504113 -0.582838655 0.0116756195
vn -0.812504113 -0.582838655 0.0116756195
vn -0.812504113 -0.582838655 0.0116756195
vn -0.812504113 -0.582838655 0.0116756195
vn 1 -0 0
vn 1 -0 0
vn 1 -0 0
vn 1 -0 0
vn -6.82429246e-15 1.62920671e-07 1
vn -6.82429246e-15 1.62920671e-07 1
vn -6.82429246e-15 1.62920671e-07 1
vn -6.82429246e-15 1.62920671e-07 1
vn -6.82429246e-15 1.62920671e-07 1
vn -1 0 0
vn -1 0 0
vn -1 0 0
vn -1 0 0
vn -0.212031901 0.971719563 -0.103940815
vn -0.212031901 0.971719563 -0.103940815
vn -0.212031901 0.971719563 -0.103940815
vn -0.212031901 0.971719563 -0.103940815
vn -0.99999994 0 0
vn -0.99999994 0 0
vn -0.99999994 0 0
vn -0.99999994 0 0
vn 0 -1 1.62920671e-07
vn 0 -1 1.62920671e-07
vn 0 -1 1.62920671e-07
vn 0 -1 1.62920671e-07
vn 0 -1.61528291e-07 -0.99999994
vn 0 -1.61528291e-07 -0.99999994
vn 0 -1.61528291e-07 -0.99999994
vn 0 1.62920699e-07 1
vn 0 1.62920699e-07 1
vn 0 1.62920699e-07 1
vn 0.812504113 0.582838655 -0.0116756512
vn 0.812504113 0.582838655 -0.0116756512
vn 0.812504113 0.582838655 -0.0116756512
vn 0.812504113 0.582838655 -0.0116756512
vn 1.51289665e-08 -1.38668767e-07 -1
vn 1.51289665e-08 -1.38668767e-07 -1
vn 1.51289665e-08 -1.38668767e-07 -1
vn 1.51289665e-08 -1.38668767e-07 -1
vn 1 -0 0
vn 1 -0 0
vn 1 -0 0
vn 1 -0 0
vn 0 1.62920671e-07 1
vn 0 1.62920671e-07 1
vn 0 1.62920671e-07 1
vn 0 1.62920671e-07 1
vn 0 1 -2.38418608e-07
vn 0 1 -2.38418608e-07
vn 0 1 -2.38418608e-07
vn 0 1 -2.38418608e-07
vn -0.99999994 0 0
vn -0.99999994 0 0
vn -0.99999994 0 0
vn -0.99999994 0 0
vn 0.21203196 -0.971719563 0.103940867
vn 0.21203196 -0.971719563 0.103940867
vn 0.21203196 -0.971719563 0.103940867
vn 0.21203196 -0.971719563 0.103940867
g simple_box0
f 5/1/1 4/2/2 8/3/3 7/4/4 2/5/5
f 5/6/6 2/7/7 1/8/8 6/9/9
f 4/10/10 5/11/11 6/12/12 3/13/13
f 2/14/14 7/15/15 9/16/16 1/17/17
f 1/18/18 9/19/19 10/20/20 3/21/21 6/22/22
f 3/23/23 10/24/24 8/25/25 4/26/26
f 7/27/27 8/28/28 10/29/29 9/30/30
g simple_box1
f 11/31/31 13/32/32 14/33/33 12/34/34
f 12/35/35 15/36/36 16/37/37 11/38/38
f 12/39/39 14/40/40 15/41/41
f 16/42/42 13/43/43 11/44/44
f 14/45/45 13/46/46 16/47/47 15/48/48
g simple_box2
f 22/49/49 18/50/50 20/51/51 23/52/52
f 23/53/53 20/54/54 19/55/55 24/56/56
f 24/57/57 19/58/58 17/59/59 21/60/60
f 20/61/61 18/62/62 17/63/63 19/64/64
f 21/65/65 17/66/66 18/67/67 22/68/68
f 22/69/69 23/70/70 24/71/71 21/72/72
