# File exported by Houdini 19.0.589 (www.sidefx.com)
# 62 points
# 202 vertices
# 45 primitives
# Bounds: [0, -4.07301677e-08, -0.250000179] to [1, 1, 0.0799999982]
g 
v 0 0 0
v 0 -4.07301677e-08 -0.25
v 0 0.75 -1.22190514e-07
v 0 0.749999881 -0.250000119
v 0 0.25 -4.07301677e-08
v 0 0.249999955 -0.25000003
v 0 0.0999999791 0.0799999759
v 0 1.30336533e-08 0.0799999982
v 0.375097901 0.749999881 -0.250000119
v 0 0.906103849 -0.250000149
v 0 0.772033215 0.0117509412
v 0.0674059391 0.75 -1.22190514e-07
v 0 0.778052211 -1.2676081e-07
v 0.451069742 1.30336533e-08 0.0799999982
v 0.475485057 0 0
v 0.567309797 0.25 -4.07301677e-08
v 0.487799555 0.0999999791 0.0799999759
v 0.643607855 0.249999955 -0.25000003
v 0.767305195 0.586775601 -0.250000089
v 0.551783204 -4.07301677e-08 -0.25
v 0.660326421 0.503245056 -8.1989036e-08
v 1 0.25 -4.07301677e-08
v 1 0 0
v 1 -4.07301677e-08 -0.25
v 1 0.249999955 -0.25000003
v 1 0.75 -1.22190514e-07
v 1 0.749999881 -0.250000119
v 1 0.0999999791 0.0799999759
v 1 1.30336533e-08 0.0799999982
v 0.940941751 0.749999881 -0.250000119
v 1 0.80551666 -0.250000119
v 1 0.82254988 -1.34010392e-07
v 1 0.825285554 0.0401521437
v 0.922822118 0.75 -1.22190514e-07
v 0.451069713 1.30336533e-08 0.0799999982
v 0.475485057 0 0
v 0.567309797 0.25 -4.07301677e-08
v 0.487799525 0.0999999791 0.0799999759
v 0.767305195 0.586775541 -0.250000089
v 0.643607855 0.249999955 -0.25000003
v 0.551783144 -4.07301677e-08 -0.25
v 0.660326421 0.503244996 -8.19890147e-08
v 0 1 -1.62920671e-07
v 0 0.999999881 -0.250000179
v 0 1 0.0799998343
v 0 0.900000036 0.0799998492
v 1 0.999999881 -0.250000179
v 1 1 -1.62920671e-07
v 1 1 0.0799998343
v 1 0.900000036 0.0799998492
v 0.375097901 0.749999881 -0.250000119
v 0 0.906103849 -0.250000149
v 0 0.772033215 0.0117509412
v 0.0674059391 0.75 -1.22190514e-07
v 0 0.778052211 -1.2676081e-07
v 1 0.80551666 -0.250000119
v 1 0.82254988 -1.34010392e-07
v 1 0.825285554 0.0401521437
v 0.922822118 0.75 -1.22190514e-07
v 0.767305195 0.586775601 -0.250000089
v 0.940941751 0.749999881 -0.250000119
v 0.66032654 0.503245056 -8.19890289e-08
vt 0.821054578 0.764037609 0
vt 0.785126626 0.758445442 0
vt 0.818364024 0.544905126 0
vt 0.852585375 0.561462224 0
vt 0.290766895 0.682617188 0
vt 0.294384956 0.759798706 0
vt 0.0729195327 0.770180285 0
vt 0.033203125 0.694690883 0
vt 0.114064708 0.0299816858 0
vt 0.340240896 0.00787762646 0
vt 0.356823295 0.177554101 0
vt 0.300327152 0.362185895 0
vt 0.142517403 0.321119308 0
vt 0.0673881099 0.817382812 0
vt 0.0665914789 0.771939039 0
vt 0.271574467 0.768345654 0
vt 0.2890625 0.813496888 0
vt 0.0009765625 0.0410338305 0
vt 0.0253699142 0.290634274 0
vt 0.410854906 0.0009765625 0
vt 0.672851562 0.740969896 0
vt 0.711422443 0.493164062 0
vt 0.316621453 0.686808944 0
vt 0.386942714 0.470708936 0
vt 0.632133961 0.550496697 0
vt 0.63671875 0.67303133 0
vt 0.345754325 0.696289062 0
vt 0.422031492 0.390897304 0
vt 0.492633998 0.383878767 0
vt 0.503874123 0.496948332 0
vt 0.491186708 0.498209596 0
vt 0.730013192 0.474468082 0
vt 0.718773127 0.361398488 0
vt 0.831842721 0.350158334 0
vt 0.843082786 0.463227928 0
vt 0.801451802 0.50390625 0
vt 0.846679688 0.499410242 0
vt 0.272248268 0.763979912 0
vt 0.283402413 0.76188308 0
vt 0.2890625 0.791992188 0
vt 0.494437307 0.503253698 0
vt 0.985666156 0.104893021 0
vt 0.999955833 0.0769668519 0
vt 0.878912449 0.0519236363 0
vt 0.886889637 0.0710698813 0
vt 0.94972831 0.00933391228 0
vt 0.872125387 0.113187179 0
vt 0.904085398 0.0486404002 0
vt 0.932365835 0.096027784 0
vt 0.934126616 0.0966391116 0
vt 0.92035681 0.0855129808 0
vt 0.918100655 0.0910022184 0
vt 0.915061414 0.098396793 0
vt 0.916161895 0.0776752457 0
vt 0.944346666 0.0766714215 0
vt 0.946020722 0.0973654464 0
vt 0.327921063 0.8152529 0
vt 0.302703619 0.814372361 0
vt 0.298931807 0.700544536 0
vt 0.331886172 0.701695204 0
vt 0.559001565 0.709625602 0
vt 0.555036426 0.823183239 0
vt 0.668594122 0.827148438 0
vt 0.672559261 0.713590741 0
vt 0.628405094 0.675666213 0
vt 0.673828125 0.677252293 0
vt 0.298326045 0.682262719 0
vt 0.34386152 0.498218983 0
vt 0.366543233 0.527249098 0
vt 0.341415435 0.524949729 0
vt 0.526846409 0.846945047 0
vt 0.474609375 0.849323511 0
vt 0.496932715 0.822265625 0
vt 0.280284137 0.580058575 0
vt 0.14706178 0.675262868 0
vt 0.0259338822 0.694335938 0
vt 0.0641988143 0.501433611 0
vt 0.287109375 0.545651078 0
vt 0.909713209 0.0138444807 0
vt 0.863458216 0.00315254438 0
vt 0.865140676 0.00372173474 0
vt 0.870087385 0.00539521035 0
vt 0.886282265 0.0160936397 0
vt 0.876760304 0.0335475057 0
vt 0.910180271 0.0145925581 0
vt 0.853515625 0.784163833 0
vt 0.851219177 0.822110653 0
vt 0.619418442 0.877797842 0
vt 0.610924959 0.842443168 0
vt 0.410111159 0.94921875 0
vt 0.369580716 0.87416333 0
vt 0.601992846 0.860748231 0
vt 0.606445312 0.937886178 0
vt 0.129868358 0.342931539 0
vt 0.277175218 0.412867725 0
vt 0.115107164 0.504240513 0
vt 0.988739133 0.386632323 0
vt 0.943527222 0.40396288 0
vt 0.940023839 0.154494658 0
vt 0.985470116 0.153856456 0
vt 0.0205174983 0.291015625 0
vt 0.001953125 0.493885905 0
vt 0.844042718 0.940694571 0
vt 0.645960629 0.98828125 0
vt 0.892644584 0 0
vt 0.877874374 0.00431309314 0
vt 0.882130027 0.0263392776 0
vt 0.881026566 0.0207188744 0
vt 0.888044238 0.0327364691 0
vt 0.90634203 0.021973433 0
vt 0.471109092 0.821289062 0
vt 0.471109092 0.86673981 0
vt 0.0166015625 0.86673981 0
vt 0.0166015904 0.821289062 0
vt 0.0437670462 0.868454814 0
vt 0.0620356537 0.8693766 0
vt 0.0525054075 0.949463964 0
vt 0.0163995475 0.945167422 0
vt 0.0217702053 0.900035143 0
vt 0.3515625 0.237532496 0
vt 0.3515625 0.20117189 0
vt 0.806070089 0.201171875 0
vt 0.80607003 0.237532511 0
vt 0.3515625 0.351159364 0
vt 0.80607003 0.351159424 0
vt 0.858823836 0.154438272 0
vt 0.924739003 0.153973237 0
vt 0.93630439 0.184528932 0
vt 0.939047277 0.573312461 0
vt 0.900515497 0.608663082 0
vt 0.862030387 0.608934581 0
vt 0.86566633 0.894806802 0
vt 0.964271128 0.916096509 0
vt 0.965818048 0.921894491 0
vt 0.902419567 0.939940631 0
vt 0.857992589 0.930348456 0
vt 0.657864153 0.0531088747 0
vt 0.835667908 0.102957286 0
vt 0.840820312 0.145321548 0
vt 0.3896375 0.200195312 0
vt 0.378965437 0.112447791 0
vt 0.402565062 0.0841588378 0
vt 0.972821176 0.908915699 0
vt 0.879476964 0.632350862 0
vt 0.999571979 0.521043956 0
vt 0.889646828 0.783739269 0
vt 0.931362033 0.792745948 0
vt 0.17578125 0.875115812 0
vt 0.165336207 0.962890625 0
vt 0.471950173 0.000986694475 0
vt 0.90763396 0.102706641 0
vt 0.910074353 0.112535588 0
vt 0.914730728 0.0728031844 0
vt 0.864779234 0.122716807 0
vt 0.864477217 0.122042045 0
vt 0.96013087 0.103758805 0
vt 0.950300097 0.124274366 0
vt 0.91050899 0.000942336512 0
vt 0.938662887 8.22754446e-05 0
vt 0.922662377 0.0225347299 0
vt 0.923882008 0.0102125332 0
vt 0.932855189 0.0186354518 0
vt 0.935451686 0.0212342534 0
vt 0.910888851 0.00478638802 0
vn 0 -1 1.62920671e-07
vn 0 -1 1.62920671e-07
vn 0 -1 1.62920671e-07
vn 0 -1 1.62920671e-07
vn 0 0.470588237 0.882352948
vn 0 0.470588237 0.882352948
vn 0 0.470588237 0.882352948
vn 0 0.470588237 0.882352948
vn 3.20436233e-10 -1.60096164e-07 -0.99999994
vn 4.2735171e-10 -1.79568175e-07 -1
vn 4.2735171e-10 -1.79568175e-07 -1
vn 4.65172401e-10 -1.7856415e-07 -1
vn 3.20436233e-10 -1.60096164e-07 -0.99999994
vn 0 2.23517503e-07 1
vn 0 2.23517503e-07 1
vn 0 2.23517503e-07 1
vn 0 2.23517503e-07 1
vn 0 -1.19209282e-07 -0.99999994
vn 3.20436233e-10 -1.60096164e-07 -0.99999994
vn 3.20436233e-10 -1.60096164e-07 -0.99999994
vn 0 -1.19209282e-07 -0.99999994
vn 4.2735171e-10 -1.79568175e-07 -1
vn 0 -1.90913298e-07 -1
vn 4.2735171e-10 -1.79568175e-07 -1
vn 0 -1 1.62920671e-07
vn 0 -1 1.62920657e-07
vn 0 -1 1.62920657e-07
vn 0 -1 1.62920671e-07
vn 7.24357166e-15 1.62920699e-07 1
vn 7.24357166e-15 1.62920699e-07 1
vn 7.24357166e-15 1.62920699e-07 1
vn 7.24357166e-15 1.62920699e-07 1
vn 7.24357166e-15 1.62920699e-07 1
vn -1 -0 0
vn -0.99999994 0 0
vn -1 0 0
vn -0.99999994 0 0
vn -1 0 0
vn -1 0 0
vn -0.99999994 0 0
vn -1 0 0
vn -1 0 0
vn -1 0 0
vn -1 0 0
vn -1 0 0
vn -1 0 -0
vn -1 0 0
vn -1 0 0
vn -1 0 -0
vn 0 -0.470588684 0.88235265
vn 0 -0.470588714 0.88235271
vn 0 -0.470588684 0.88235265
vn -0.99999994 0 0
vn -1 0 0
vn -1 0 0
vn 0.347343981 0.834623456 0.427499592
vn 0.347343981 0.834623516 0.427499622
vn 0.347343981 0.834623456 0.427499592
vn 0.347343981 0.834623516 0.427499622
vn 0.347343981 0.834623456 0.427499592
vn 0.347343981 0.834623456 0.427499592
vn 0.347343981 0.834623456 0.427499592
vn 0.902384937 -0.331444889 0.275400966
vn 0.902384937 -0.331444889 0.275400966
vn 0.902384937 -0.331444889 0.275400966
vn 0.902384937 -0.331444889 0.275400966
vn 0.902384937 -0.331444889 0.275400966
vn 0.902384937 -0.331444889 0.275400966
vn 0.902384937 -0.331444889 0.275400966
vn 0.902384937 -0.331444889 0.275400966
vn 1 0 0
vn 1 -0 0
vn 1 -0 0
vn 1 0 0
vn 1 0 0
vn 1 0 0
vn 1 0 0
vn 1 0 0
vn 1 -0 0
vn 1 0 0
vn 1 0 0
vn 1 -0 0
vn 1 -0 0
vn 1 0 0
vn 1 -0 0
vn 1 -0 0
vn 1 0 0
vn 1 -0 0
vn 1 -0 0
vn -1.23457811e-09 -1.75728005e-07 -0.99999994
vn 0 0 -1
vn -1.23457811e-09 -1.75728005e-07 -0.99999994
vn 0 -0.470587969 0.882353067
vn 0 -0.470587969 0.882353067
vn 0 -0.470587969 0.882353067
vn 5.95179262e-15 1.62920671e-07 1
vn 5.95179262e-15 1.62920671e-07 1
vn 5.95179262e-15 1.62920671e-07 1
vn 5.95179262e-15 1.62920671e-07 1
vn 5.95179262e-15 1.62920671e-07 1
vn -0.684080958 0.727719009 -0.0495815389
vn -0.684080958 0.727719009 -0.0495815389
vn -0.684080958 0.727719009 -0.0495815389
vn -0.684080958 0.727719009 -0.0495815389
vn -0.684080958 0.727719009 -0.0495815389
vn -0.684080958 0.727719009 -0.0495815389
vn -0.684080958 0.727719009 -0.0495815389
vn 0 -0.99999994 1.62920671e-07
vn 0 -1 1.62920685e-07
vn 0 -1 1.62920685e-07
vn 0 -0.99999994 1.62920671e-07
vn 0 0.470588237 0.882352889
vn 0 0.470588237 0.882352889
vn 0 0.470588237 0.882352889
vn 0 0.470588326 0.882352948
vn -6.88267221e-10 -1.5159209e-07 -1
vn -1.25103206e-09 -1.78070025e-07 -1
vn -1.23457811e-09 -1.75728005e-07 -0.99999994
vn -1.23457811e-09 -1.75728005e-07 -0.99999994
vn -6.88267221e-10 -1.5159209e-07 -1
vn 0 2.23517503e-07 1
vn 0 2.23517503e-07 1
vn 0 2.23517503e-07 1
vn 0 2.23517503e-07 1
vn 0 -1.1920929e-07 -1
vn -6.88267221e-10 -1.5159209e-07 -1
vn -6.88267221e-10 -1.5159209e-07 -1
vn 0 -1.1920929e-07 -1
vn 0 -1 1.62920685e-07
vn 0 -1 1.62920685e-07
vn 0 -1 1.62920685e-07
vn 0 -1 1.62920685e-07
vn -0.902384937 0.331444979 -0.275400966
vn -0.902384937 0.331444979 -0.275400966
vn -0.902384937 0.331444979 -0.275400966
vn -0.902384937 0.331445009 -0.275400966
vn -0.902384937 0.331444979 -0.275400966
vn -0.902384937 0.331445009 -0.275400966
vn -0.902384937 0.331444979 -0.275400966
vn -0.902384937 0.331444979 -0.275400966
vn 0 1.49011669e-07 1
vn 0 1.49011669e-07 1
vn 0 1.49011669e-07 1
vn 0 1.49011669e-07 1
vn 1 0 0
vn 1 0 0
vn 1 0 0
vn 1 0 0
vn 1 0 0
vn 0 0.99999994 -3.61240211e-07
vn 0 1 -0
vn 0 1 -0
vn 0 0.99999994 -3.61240211e-07
vn 0 1 -4.76837101e-07
vn 0 0.99999994 -3.61240211e-07
vn 0 0.99999994 -3.61240211e-07
vn 0 1 -4.76837101e-07
vn 1.29844882e-08 -0.470587999 0.882353067
vn 1.29844882e-08 -0.470587999 0.882353067
vn 1.29844882e-08 -0.470587999 0.882353067
vn 1.29844882e-08 -0.470587999 0.882353067
vn 1.29844882e-08 -0.470587999 0.882353067
vn 1.29844882e-08 -0.470587999 0.882353067
vn -1 0 0
vn -1 0 0
vn -1 0 0
vn -1 0 0
vn -1 0 0
vn 2.74277889e-09 -2.35415129e-07 -1
vn 3.32091821e-09 -2.46550968e-07 -1
vn 3.32091821e-09 -2.46550968e-07 -1
vn 3.32091821e-09 -2.46550968e-07 -1
vn 3.32091821e-09 -2.46550968e-07 -1
vn 2.74277889e-09 -2.35415129e-07 -1
vn -0 1.62920685e-07 0.99999994
vn -0 1.62920685e-07 0.99999994
vn -0 1.62920685e-07 0.99999994
vn -1 -0 0
vn -1 -0 0
vn -1 0 0
vn -1 0 0
vn 0.99999994 -0 0
vn 0.99999994 -0 0
vn 1 0 0
vn 1 0 0
vn 0 -1.82585097e-07 -1
vn 2.74277889e-09 -2.35415129e-07 -1
vn 2.74277889e-09 -2.35415129e-07 -1
vn -0.347343981 -0.834623456 -0.427499622
vn -0.347343981 -0.834623456 -0.427499622
vn -0.347343981 -0.834623456 -0.427499622
vn -0.347343981 -0.834623456 -0.427499622
vn -0.347343981 -0.834623456 -0.427499622
vn -0.347343981 -0.834623456 -0.427499622
vn -0.347343981 -0.834623456 -0.427499622
vn 0.684080958 -0.727719009 0.0495813861
vn 0.684080958 -0.727719009 0.0495813861
vn 0.684080958 -0.727719009 0.0495813861
vn 0.684080958 -0.727719009 0.0495813861
vn 0.684080958 -0.727719009 0.0495813861
vn 0.684080958 -0.727719009 0.0495813861
vn 0.684080958 -0.727719009 0.0495813861
g wall_short_flat0
f 8/1/1 1/2/2 15/3/3 14/4/4
f 5/5/5 7/6/6 17/7/7 16/8/8
f 6/9/9 4/10/10 9/11/11 19/12/12 18/13/13
f 7/14/14 8/15/15 14/16/16 17/17/17
f 2/18/18 6/9/19 18/13/20 20/19/21
f 4/10/22 10/20/23 9/11/24
f 1/2/25 2/21/26 20/22/27 15/3/28
f 3/23/29 5/24/30 16/25/31 21/26/32 12/27/33
f 10/28/34 4/29/35 3/30/36 13/31/37
f 5/32/38 3/30/39 4/29/40 6/33/41
f 2/34/42 1/35/43 5/32/44 6/33/45
f 7/36/46 5/32/47 1/35/48 8/37/49
f 11/38/50 3/39/51 12/40/52
f 13/31/53 3/30/54 11/41/55
f 19/42/56 9/43/57 10/44/58 13/45/59 11/46/60 12/47/61 21/48/62
f 14/49/63 15/50/64 20/51/65 18/52/66 19/53/67 21/54/68 16/55/69 17/56/70
g wall_short_flat1
f 27/57/71 31/58/72 32/59/73 26/60/74
f 27/57/75 26/60/76 22/61/77 25/62/78
f 24/63/79 25/62/80 22/61/81 23/64/82
f 23/64/83 22/61/84 28/65/85 29/66/86
f 26/60/87 32/59/88 33/67/89
f 30/68/90 31/69/91 27/70/92
f 33/71/93 34/72/94 26/73/95
f 34/74/96 42/75/97 37/76/98 22/77/99 26/78/100
f 32/79/101 31/80/102 30/81/103 39/82/104 42/83/105 34/84/106 33/85/107
f 35/86/108 36/87/109 23/88/110 29/89/111
f 37/90/112 38/91/113 28/92/114 22/93/115
f 40/94/116 39/95/117 30/68/118 27/70/119 25/96/120
f 38/97/121 35/98/122 29/99/123 28/100/124
f 41/101/125 40/94/126 25/96/127 24/102/128
f 36/87/129 41/103/130 24/104/131 23/88/132
f 37/105/133 42/83/134 39/82/135 40/106/136 41/107/137 36/108/138 35/109/139 38/110/140
g wall_short_flat2
f 45/111/141 46/112/142 50/113/143 49/114/144
f 58/115/145 57/116/146 48/117/147 49/118/148 50/119/149
f 43/120/150 45/121/151 49/122/152 48/123/153
f 44/124/154 43/120/155 48/123/156 47/125/157
f 46/126/158 53/127/159 54/128/160 59/129/161 58/130/162 50/131/163
f 43/132/164 55/133/165 53/134/166 46/135/167 45/136/168
f 51/137/169 52/138/170 44/139/171 47/140/172 56/141/173 61/142/174
f 54/143/175 62/144/176 59/145/177
f 44/146/178 52/147/179 55/133/180 43/132/181
f 56/148/182 47/149/183 48/117/184 57/116/185
f 60/150/186 51/137/187 61/142/188
f 60/151/189 62/152/190 54/153/191 53/154/192 55/155/193 52/156/194 51/157/195
f 57/158/196 58/159/197 59/160/198 62/161/199 60/162/200 61/163/201 56/164/202
